shantell-semi_organic_normalized--extrabold.ufo
<glyph name="exclam" format="2">
	<unicode hex="0021"/>
	<advance width="337"/>
	<outline>
		<contour>
			<point x="249" y="600" type="curve" smooth="yes"/>
			<point x="249" y="565"/>
			<point x="244" y="525"/>
			<point x="244" y="477" type="curve" smooth="yes"/>
			<point x="244" y="411"/>
			<point x="250" y="343"/>
			<point x="250" y="302" type="curve" smooth="yes"/>
			<point x="250" y="244"/>
			<point x="223" y="216"/>
			<point x="180" y="216" type="curve" smooth="yes"/>
			<point x="133" y="216"/>
			<point x="102" y="236"/>
			<point x="93" y="283" type="curve" smooth="yes"/>
			<point x="81" y="346"/>
			<point x="77" y="389"/>
			<point x="77" y="461" type="curve" smooth="yes"/>
			<point x="77" y="516"/>
			<point x="84" y="581"/>
			<point x="82" y="653" type="curve" smooth="yes"/>
			<point x="80" y="692"/>
			<point x="93" y="718"/>
			<point x="134" y="718" type="curve" smooth="yes"/>
			<point x="205" y="718"/>
			<point x="249" y="684"/>
		</contour>
		<contour>
			<point x="186" y="-13" type="curve" smooth="yes"/>
			<point x="243" y="-13"/>
			<point x="273" y="14"/>
			<point x="273" y="57" type="curve" smooth="yes"/>
			<point x="273" y="112"/>
			<point x="235" y="165"/>
			<point x="153" y="165" type="curve" smooth="yes"/>
			<point x="100" y="165"/>
			<point x="64" y="136"/>
			<point x="64" y="76" type="curve" smooth="yes"/>
			<point x="64" y="19"/>
			<point x="110" y="-13"/>
		</contour>
	</outline>
</glyph>
<glyph name="numbersign" format="2">
	<unicode hex="0023"/>
	<advance width="937"/>
	<image fileName="numbersign.png" xScale="1.7590725526" yScale="1.7590725526" xOffset="-34.2540314737" yOffset="-214.5705612106" color="0,0,0,0.3075"/>
	<outline>
		<contour>
			<point x="477" y="724" type="curve" smooth="yes"/>
			<point x="477" y="581.4981084489"/>
			<point x="270" y="129.5914249685"/>
			<point x="270" y="-50" type="curve" smooth="yes"/>
			<point x="270" y="-90"/>
			<point x="237" y="-123"/>
			<point x="202" y="-122" type="curve" smooth="yes"/>
			<point x="156" y="-121"/>
			<point x="120" y="-85.362745098"/>
			<point x="120" y="-21" type="curve" smooth="yes"/>
			<point x="120" y="146.8910761155"/>
			<point x="328" y="579.9175257732"/>
			<point x="328" y="736" type="curve" smooth="yes"/>
			<point x="328" y="788.0634920635"/>
			<point x="346.9911098017" y="816.999777745"/>
			<point x="387" y="818" type="curve" smooth="yes"/>
			<point x="436.0059512144" y="819.0001214534"/>
			<point x="477" y="775.3866666667"/>
		</contour>
		<contour>
			<point x="822" y="687" type="curve" smooth="yes"/>
			<point x="830.9991642966" y="543.0133712546"/>
			<point x="629.8745491474" y="177.4622859571"/>
			<point x="620" y="-101" type="curve" smooth="yes"/>
			<point x="619.0000749477" y="-140.99700209"/>
			<point x="588" y="-174"/>
			<point x="552" y="-173" type="curve" smooth="yes"/>
			<point x="502" y="-172"/>
			<point x="469" y="-134"/>
			<point x="470" y="-85" type="curve" smooth="yes"/>
			<point x="475" y="183"/>
			<point x="683" y="538"/>
			<point x="677" y="691" type="curve" smooth="yes"/>
			<point x="675" y="735"/>
			<point x="691.9848740984" y="764.9991356628"/>
			<point x="727" y="767" type="curve" smooth="yes"/>
			<point x="774.535280296" y="769.8521168178"/>
			<point x="819.0006194757" y="732.9905013722"/>
		</contour>
		<contour>
			<point x="194" y="607" type="curve" smooth="yes"/>
			<point x="283" y="607"/>
			<point x="325" y="553"/>
			<point x="860" y="553" type="curve" smooth="yes"/>
			<point x="897" y="553"/>
			<point x="931" y="526"/>
			<point x="932" y="491" type="curve" smooth="yes"/>
			<point x="933" y="456"/>
			<point x="900" y="424"/>
			<point x="859" y="424" type="curve" smooth="yes"/>
			<point x="615" y="424"/>
			<point x="414" y="428"/>
			<point x="245" y="445" type="curve" smooth="yes"/>
			<point x="146" y="454"/>
			<point x="123" y="506"/>
			<point x="123" y="546" type="curve" smooth="yes"/>
			<point x="123" y="583"/>
			<point x="145" y="607"/>
		</contour>
		<contour>
			<point x="82" y="248" type="curve" smooth="yes"/>
			<point x="319" y="248"/>
			<point x="600.3731739708" y="283"/>
			<point x="837" y="283" type="curve" smooth="yes"/>
			<point x="881" y="283"/>
			<point x="901" y="270"/>
			<point x="902" y="239" type="curve" smooth="yes"/>
			<point x="904" y="191"/>
			<point x="860" y="146"/>
			<point x="771" y="143" type="curve" smooth="yes"/>
			<point x="580" y="138"/>
			<point x="303" y="84"/>
			<point x="134" y="84" type="curve" smooth="yes"/>
			<point x="37" y="84"/>
			<point x="2.4442545757" y="132.6072188023"/>
			<point x="5" y="185" type="curve" smooth="yes"/>
			<point x="6.7751049856" y="220.5020997116"/>
			<point x="42" y="248"/>
		</contour>
	</outline>
</glyph>
<glyph name="comma" format="2">
	<unicode hex="002C"/>
	<advance width="319"/>
	<outline>
		<contour>
			<point x="125" y="-127" type="curve" smooth="yes"/>
			<point x="147" y="-127"/>
			<point x="167" y="-115"/>
			<point x="177" y="-97" type="curve" smooth="yes"/>
			<point x="210" y="-42"/>
			<point x="235" y="43"/>
			<point x="239" y="111" type="curve" smooth="yes"/>
			<point x="239" y="112"/>
			<point x="239" y="114"/>
			<point x="239" y="115" type="curve" smooth="yes"/>
			<point x="239" y="148"/>
			<point x="212" y="175"/>
			<point x="179" y="175" type="curve" smooth="yes"/>
			<point x="147" y="175"/>
			<point x="121" y="150"/>
			<point x="119" y="118" type="curve" smooth="yes"/>
			<point x="116" y="66"/>
			<point x="98" y="6"/>
			<point x="74" y="-36" type="curve" smooth="yes"/>
			<point x="68" y="-45"/>
			<point x="65" y="-55"/>
			<point x="65" y="-67" type="curve" smooth="yes"/>
			<point x="65" y="-100"/>
			<point x="92" y="-127"/>
		</contour>
	</outline>
</glyph>
<glyph name="period" format="2">
	<unicode hex="002E"/>
	<advance width="287"/>
	<outline>
		<contour>
			<point x="163" y="-16" type="curve" smooth="yes"/>
			<point x="226.8181818182" y="-16"/>
			<point x="260" y="18"/>
			<point x="260" y="57" type="curve" smooth="yes"/>
			<point x="260" y="128"/>
			<point x="219.1351351351" y="197"/>
			<point x="115" y="197" type="curve" smooth="yes"/>
			<point x="63" y="197"/>
			<point x="21" y="163"/>
			<point x="21" y="101" type="curve" smooth="yes"/>
			<point x="21" y="22"/>
			<point x="69" y="-16"/>
		</contour>
	</outline>
</glyph>
<glyph name="zero" format="2">
	<unicode hex="0030"/>
	<advance width="700"/>
	<outline>
		<contour>
			<point x="313" y="520" type="curve" smooth="yes"/>
			<point x="253" y="480"/>
			<point x="194" y="367"/>
			<point x="194" y="270" type="curve" smooth="yes"/>
			<point x="194" y="209"/>
			<point x="243" y="163"/>
			<point x="317" y="163" type="curve" smooth="yes"/>
			<point x="408" y="163"/>
			<point x="505" y="251"/>
			<point x="505" y="417" type="curve" smooth="yes"/>
			<point x="505" y="485"/>
			<point x="478.75" y="536"/>
			<point x="400" y="536" type="curve" smooth="yes"/>
			<point x="343.693989071" y="536"/>
			<point x="274.7199793818" y="504.5185412376"/>
			<point x="239" y="478" type="curve" smooth="yes"/>
			<point x="223" y="461"/>
			<point x="208" y="446"/>
			<point x="189" y="446" type="curve" smooth="yes"/>
			<point x="139.365266184" y="446"/>
			<point x="94" y="495"/>
			<point x="94" y="545" type="curve" smooth="yes"/>
			<point x="94" y="580.5257731959"/>
			<point x="162.9618320611" y="711"/>
			<point x="400" y="711" type="curve" smooth="yes"/>
			<point x="594" y="711"/>
			<point x="678" y="599"/>
			<point x="678" y="417" type="curve" smooth="yes"/>
			<point x="678" y="128"/>
			<point x="493.6827794562" y="-11"/>
			<point x="317" y="-11" type="curve" smooth="yes"/>
			<point x="153.4210526316" y="-11"/>
			<point x="21" y="74"/>
			<point x="21" y="270" type="curve" smooth="yes"/>
			<point x="21" y="521.0343007916"/>
			<point x="210" y="665"/>
			<point x="241" y="665" type="curve" smooth="yes"/>
			<point x="306.36" y="665"/>
			<point x="337" y="630"/>
			<point x="337" y="576" type="curve" smooth="yes"/>
			<point x="337" y="555"/>
			<point x="327.35003074" y="530.2722461311"/>
		</contour>
	</outline>
</glyph>
<glyph name="one" format="2">
	<unicode hex="0031"/>
	<advance width="700"/>
	<outline>
		<contour>
			<point x="105" y="167" type="curve" smooth="yes"/>
			<point x="188.1650434314" y="150.6492595006"/>
			<point x="471" y="174"/>
			<point x="627" y="174" type="curve" smooth="yes"/>
			<point x="658.3416927899" y="174"/>
			<point x="652" y="151"/>
			<point x="653" y="129" type="curve" smooth="yes"/>
			<point x="654" y="54"/>
			<point x="608.3064516129" y="0"/>
			<point x="460" y="0" type="curve" smooth="yes"/>
			<point x="391.912371134" y="0"/>
			<point x="166.0952380952" y="-6"/>
			<point x="120" y="-6" type="curve" smooth="yes"/>
			<point x="57" y="-6"/>
			<point x="45" y="50"/>
			<point x="45" y="104" type="curve" smooth="yes"/>
			<point x="45" y="137"/>
			<point x="84.147139318" y="170.3850218596"/>
		</contour>
		<contour>
			<point x="114" y="610" type="curve" smooth="yes"/>
			<point x="199" y="610"/>
			<point x="321.7110516306" y="666.0710669256"/>
			<point x="376" y="719" type="curve" smooth="yes"/>
			<point x="380" y="724"/>
			<point x="390" y="727"/>
			<point x="401" y="727" type="curve" smooth="yes"/>
			<point x="456" y="727"/>
			<point x="494.2" y="674"/>
			<point x="479" y="625" type="curve" smooth="yes"/>
			<point x="419" y="402"/>
			<point x="433" y="58"/>
			<point x="433" y="103" type="curve" smooth="yes"/>
			<point x="433" y="57"/>
			<point x="388" y="16"/>
			<point x="337" y="16" type="curve" smooth="yes"/>
			<point x="296" y="16"/>
			<point x="260" y="53"/>
			<point x="260" y="95" type="curve" smooth="yes"/>
			<point x="260" y="170"/>
			<point x="271" y="401"/>
			<point x="287" y="529" type="curve" smooth="yes"/>
			<point x="305.3529411764" y="651.3529411764"/>
			<point x="434" y="577"/>
			<point x="328" y="509" type="curve" smooth="yes"/>
			<point x="289" y="476"/>
			<point x="223" y="447"/>
			<point x="165" y="447" type="curve" smooth="yes"/>
			<point x="85.7088607594" y="447"/>
			<point x="49" y="496"/>
			<point x="49" y="544" type="curve" smooth="yes"/>
			<point x="49" y="576.9361702128"/>
			<point x="70" y="610"/>
		</contour>
	</outline>
</glyph>
<glyph name="two" format="2">
	<unicode hex="0032"/>
	<advance width="700"/>
	<outline>
		<contour>
			<point x="91" y="598" type="curve" smooth="yes"/>
			<point x="199.8522824022" y="677.1622140791"/>
			<point x="289.2040816327" y="713"/>
			<point x="378" y="713" type="curve" smooth="yes"/>
			<point x="538" y="713"/>
			<point x="600" y="624.8823529412"/>
			<point x="600" y="499" type="curve" smooth="yes"/>
			<point x="600" y="400.5678496868"/>
			<point x="553.2247220475" y="302.9657539856"/>
			<point x="310" y="126" type="curve"/>
			<point x="294" y="170" type="line"/>
			<point x="297" y="168"/>
			<point x="320" y="162"/>
			<point x="323" y="162" type="curve" smooth="yes"/>
			<point x="376" y="162"/>
			<point x="428" y="174"/>
			<point x="547" y="174" type="curve" smooth="yes"/>
			<point x="649" y="174"/>
			<point x="684" y="129"/>
			<point x="684" y="68" type="curve" smooth="yes"/>
			<point x="684" y="32"/>
			<point x="657" y="0"/>
			<point x="609" y="0" type="curve" smooth="yes"/>
			<point x="371.3409090909" y="0"/>
			<point x="229" y="-20"/>
			<point x="155" y="-20" type="curve" smooth="yes"/>
			<point x="84" y="-20"/>
			<point x="42" y="30"/>
			<point x="52" y="118" type="curve" smooth="yes"/>
			<point x="56" y="139"/>
			<point x="67" y="157"/>
			<point x="85" y="169" type="curve" smooth="yes"/>
			<point x="329.0510847817" y="325.7768876906"/>
			<point x="427" y="410.6650943396"/>
			<point x="427" y="499" type="curve" smooth="yes"/>
			<point x="427" y="523.1870503597"/>
			<point x="412" y="538"/>
			<point x="378" y="538" type="curve" smooth="yes"/>
			<point x="264.2192982456" y="538"/>
			<point x="194.4583333333" y="446"/>
			<point x="144" y="446" type="curve" smooth="yes"/>
			<point x="108" y="446"/>
			<point x="69" y="497"/>
			<point x="69" y="550" type="curve" smooth="yes"/>
			<point x="69" y="572"/>
			<point x="77" y="590"/>
		</contour>
	</outline>
</glyph>
<glyph name="three" format="2">
	<unicode hex="0033"/>
	<advance width="700"/>
	<outline>
		<contour>
			<point x="372" y="712" type="curve" smooth="yes"/>
			<point x="536" y="712"/>
			<point x="614" y="635.1176470588"/>
			<point x="614" y="518" type="curve" smooth="yes"/>
			<point x="614" y="453.650273224"/>
			<point x="569.3847007748" y="424.8941420688"/>
			<point x="576" y="389" type="curve"/>
			<point x="581" y="422" type="line"/>
			<point x="619.9986876942" y="377.999986811"/>
			<point x="668" y="322.4810126582"/>
			<point x="668" y="228" type="curve" smooth="yes"/>
			<point x="668" y="87.1304347826"/>
			<point x="505" y="-12"/>
			<point x="257" y="-12" type="curve"/>
			<point x="47" y="-12"/>
			<point x="52" y="44"/>
			<point x="52" y="116" type="curve" smooth="yes"/>
			<point x="52" y="146.6551724138"/>
			<point x="65" y="173"/>
			<point x="97" y="173" type="curve" smooth="yes"/>
			<point x="143" y="173"/>
			<point x="174" y="161"/>
			<point x="230" y="161" type="curve" smooth="yes"/>
			<point x="373" y="161"/>
			<point x="495" y="187.9877300613"/>
			<point x="495" y="228" type="curve" smooth="yes"/>
			<point x="495" y="267.2857142857"/>
			<point x="350.9992664149" y="282.000005394"/>
			<point x="291" y="279" type="curve" smooth="yes"/>
			<point x="242" y="279"/>
			<point x="217" y="330"/>
			<point x="217" y="385" type="curve" smooth="yes"/>
			<point x="217" y="402"/>
			<point x="228" y="420"/>
			<point x="253" y="427" type="curve" smooth="yes"/>
			<point x="344.0590269212" y="454.7601441172"/>
			<point x="433" y="467.3475177305"/>
			<point x="433" y="522" type="curve" smooth="yes"/>
			<point x="433" y="535.1428571429"/>
			<point x="401" y="537"/>
			<point x="372" y="537" type="curve" smooth="yes"/>
			<point x="251.1224617253" y="537"/>
			<point x="125.9188415326" y="445"/>
			<point x="100" y="445" type="curve" smooth="yes"/>
			<point x="72" y="445"/>
			<point x="22" y="480"/>
			<point x="22" y="526" type="curve" smooth="yes"/>
			<point x="22" y="602"/>
			<point x="180.8539325843" y="712"/>
		</contour>
	</outline>
</glyph>
<glyph name="four" format="2">
	<unicode hex="0034"/>
	<advance width="700"/>
	<outline>
		<contour>
			<point x="327" y="157" type="curve" smooth="yes"/>
			<point x="327" y="314.6883116883"/>
			<point x="372" y="460.3818181818"/>
			<point x="372" y="559" type="curve" smooth="yes"/>
			<point x="372" y="562.4416666667"/>
			<point x="369" y="564"/>
			<point x="365" y="588" type="curve"/>
			<point x="405" y="505" type="line"/>
			<point x="373" y="535"/>
			<point x="257" y="441"/>
			<point x="153" y="316" type="curve"/>
			<point x="123" y="356" type="line"/>
			<point x="156" y="343"/>
			<point x="167.1666666667" y="344"/>
			<point x="194" y="344" type="curve" smooth="yes"/>
			<point x="328.5263157895" y="344"/>
			<point x="440" y="417"/>
			<point x="623" y="417" type="curve" smooth="yes"/>
			<point x="672" y="417"/>
			<point x="712" y="365"/>
			<point x="712" y="309" type="curve" smooth="yes"/>
			<point x="712" y="271"/>
			<point x="694" y="242"/>
			<point x="649" y="242" type="curve" smooth="yes"/>
			<point x="444" y="242"/>
			<point x="327" y="170"/>
			<point x="165" y="170" type="curve" smooth="yes"/>
			<point x="59" y="170"/>
			<point x="-20" y="243"/>
			<point x="-20" y="302" type="curve" smooth="yes"/>
			<point x="-20" y="331"/>
			<point x="-20" y="336"/>
			<point x="-8" y="353" type="curve" smooth="yes"/>
			<point x="134" y="586"/>
			<point x="336" y="715"/>
			<point x="415" y="715" type="curve" smooth="yes"/>
			<point x="507" y="715"/>
			<point x="551" y="605"/>
			<point x="551" y="581" type="curve" smooth="yes"/>
			<point x="551" y="427"/>
			<point x="502" y="311.8096385542"/>
			<point x="502" y="148" type="curve" smooth="yes"/>
			<point x="502" y="100"/>
			<point x="512" y="79"/>
			<point x="512" y="53" type="curve" smooth="yes"/>
			<point x="512" y="13"/>
			<point x="476" y="-11"/>
			<point x="422" y="-11" type="curve" smooth="yes"/>
			<point x="354" y="-11"/>
			<point x="327" y="39"/>
		</contour>
	</outline>
</glyph>
<glyph name="five" format="2">
	<unicode hex="0035"/>
	<advance width="700"/>
	<outline>
		<contour>
			<point x="590" y="596" type="curve" smooth="yes"/>
			<point x="436" y="590"/>
			<point x="363.0333799488" y="576.8622849152"/>
			<point x="180" y="580" type="curve"/>
			<point x="238" y="622" type="line"/>
			<point x="230" y="595"/>
			<point x="186" y="497"/>
			<point x="215" y="488" type="curve" smooth="yes"/>
			<point x="252" y="477"/>
			<point x="319" y="464"/>
			<point x="384" y="451" type="curve" smooth="yes"/>
			<point x="564" y="413"/>
			<point x="621" y="337"/>
			<point x="621" y="257" type="curve" smooth="yes"/>
			<point x="621" y="102"/>
			<point x="475" y="-12"/>
			<point x="252" y="-12" type="curve" smooth="yes"/>
			<point x="135" y="-12"/>
			<point x="94" y="26"/>
			<point x="110" y="115" type="curve" smooth="yes"/>
			<point x="127" y="151"/>
			<point x="156" y="163"/>
			<point x="205" y="146" type="curve" smooth="yes"/>
			<point x="237" y="129"/>
			<point x="181.9333333334" y="74"/>
			<point x="262" y="101" type="curve" smooth="yes"/>
			<point x="522" y="108"/>
			<point x="765" y="204"/>
			<point x="750" y="370" type="curve" smooth="yes"/>
			<point x="625" y="486"/>
			<point x="379" y="478"/>
			<point x="219" y="427" type="curve" smooth="yes"/>
			<point x="81" y="397"/>
			<point x="0" y="405"/>
			<point x="-2" y="415" type="curve" smooth="yes"/>
			<point x="-91" y="451"/>
			<point x="-102" y="547"/>
			<point x="61" y="914" type="curve" smooth="yes"/>
			<point x="164" y="967"/>
			<point x="256" y="964"/>
			<point x="240" y="742" type="curve" smooth="yes"/>
			<point x="584.2030456852" y="711"/>
			<point x="691" y="732"/>
			<point x="928" y="732" type="curve" smooth="yes"/>
			<point x="857" y="735"/>
			<point x="846.1379310344" y="636"/>
			<point x="692" y="562" type="curve" smooth="yes"/>
			<point x="657" y="511"/>
			<point x="589" y="506"/>
		</contour>
	</outline>
</glyph>
<glyph name="six" format="2">
	<unicode hex="0036"/>
	<advance width="700"/>
	<outline>
		<contour>
			<point x="430" y="580" type="curve" smooth="yes"/>
			<point x="285" y="474"/>
			<point x="175" y="359"/>
			<point x="175" y="239" type="curve" smooth="yes"/>
			<point x="175" y="142"/>
			<point x="255" y="110"/>
			<point x="366" y="110" type="curve" smooth="yes"/>
			<point x="447" y="110"/>
			<point x="525" y="139"/>
			<point x="525" y="225" type="curve" smooth="yes"/>
			<point x="525" y="258"/>
			<point x="500" y="290"/>
			<point x="394" y="290" type="curve" smooth="yes"/>
			<point x="279" y="290"/>
			<point x="264" y="245"/>
			<point x="216" y="263" type="curve" smooth="yes"/>
			<point x="176" y="275"/>
			<point x="158" y="313"/>
			<point x="170" y="337" type="curve" smooth="yes"/>
			<point x="182" y="383"/>
			<point x="360" y="455"/>
			<point x="580" y="443" type="curve" smooth="yes"/>
			<point x="856" y="419"/>
			<point x="979" y="230"/>
			<point x="896" y="0" type="curve" smooth="yes"/>
			<point x="693" y="-214"/>
			<point x="457" y="-306"/>
			<point x="87" y="-230" type="curve" smooth="yes"/>
			<point x="-351" y="-118"/>
			<point x="-457" y="174"/>
			<point x="-256" y="488" type="curve" smooth="yes"/>
			<point x="-37" y="780"/>
			<point x="283" y="992"/>
			<point x="671" y="1117" type="curve" smooth="yes"/>
			<point x="741" y="1021"/>
			<point x="651" y="886"/>
			<point x="462" y="722" type="curve" smooth="yes"/>
			<point x="502" y="703"/>
			<point x="513" y="650"/>
			<point x="494" y="612" type="curve" smooth="yes"/>
			<point x="475" y="594"/>
			<point x="470" y="607"/>
		</contour>
	</outline>
</glyph>
<glyph name="seven" format="2">
	<unicode hex="0037"/>
	<advance width="700"/>
	<outline>
		<contour>
			<point x="172" y="366" type="curve" smooth="yes"/>
			<point x="283" y="366"/>
			<point x="381" y="394"/>
			<point x="546" y="394" type="curve" smooth="yes"/>
			<point x="625" y="394"/>
			<point x="672" y="347.0588235294"/>
			<point x="672" y="289" type="curve" smooth="yes"/>
			<point x="672" y="253"/>
			<point x="647" y="229"/>
			<point x="601" y="229" type="curve" smooth="yes"/>
			<point x="383" y="229"/>
			<point x="305" y="201"/>
			<point x="210" y="201" type="curve" smooth="yes"/>
			<point x="153" y="201"/>
			<point x="111" y="248"/>
			<point x="111" y="298" type="curve" smooth="yes"/>
			<point x="111" y="342"/>
			<point x="130" y="366"/>
		</contour>
		<contour>
			<point x="52" y="645" type="curve" smooth="yes"/>
			<point x="151" y="682"/>
			<point x="295.1998732257" y="710"/>
			<point x="376" y="710" type="curve" smooth="yes"/>
			<point x="553.0196078431" y="710"/>
			<point x="620" y="635"/>
			<point x="620" y="525" type="curve" smooth="yes"/>
			<point x="620" y="365"/>
			<point x="440" y="235"/>
			<point x="440" y="70" type="curve" smooth="yes"/>
			<point x="440" y="9"/>
			<point x="421" y="-9"/>
			<point x="373" y="-9" type="curve" smooth="yes"/>
			<point x="315" y="-9"/>
			<point x="267" y="20"/>
			<point x="267" y="83" type="curve" smooth="yes"/>
			<point x="267" y="240"/>
			<point x="443" y="436"/>
			<point x="443" y="506" type="curve" smooth="yes"/>
			<point x="443" y="535"/>
			<point x="427" y="546"/>
			<point x="383" y="546" type="curve" smooth="yes"/>
			<point x="224" y="546"/>
			<point x="156.309352518" y="494"/>
			<point x="109" y="494" type="curve" smooth="yes"/>
			<point x="67.4772727273" y="494"/>
			<point x="22" y="547"/>
			<point x="22" y="593" type="curve" smooth="yes"/>
			<point x="22" y="615"/>
			<point x="32" y="638"/>
		</contour>
	</outline>
</glyph>
<glyph name="eight" format="2">
	<unicode hex="0038"/>
	<advance width="700"/>
	<outline>
		<contour>
			<point x="416" y="590" type="curve" smooth="yes"/>
			<point x="259" y="594"/>
			<point x="184" y="577"/>
			<point x="183" y="545" type="curve" smooth="yes"/>
			<point x="182" y="505"/>
			<point x="249" y="489"/>
			<point x="388" y="422" type="curve" smooth="yes"/>
			<point x="619" y="310"/>
			<point x="623" y="252"/>
			<point x="623" y="200" type="curve" smooth="yes"/>
			<point x="622" y="93"/>
			<point x="527" y="-12"/>
			<point x="276" y="-12" type="curve" smooth="yes"/>
			<point x="139" y="-12"/>
			<point x="91" y="51"/>
			<point x="91" y="125" type="curve" smooth="yes"/>
			<point x="92" y="176"/>
			<point x="113" y="242"/>
			<point x="310" y="389" type="curve" smooth="yes"/>
			<point x="397" y="454"/>
			<point x="476" y="550"/>
			<point x="492" y="601" type="curve" smooth="yes"/>
			<point x="498" y="620"/>
			<point x="494" y="636"/>
			<point x="525" y="646" type="curve" smooth="yes"/>
			<point x="556" y="656"/>
			<point x="590" y="628"/>
			<point x="600" y="579" type="curve" smooth="yes"/>
			<point x="620" y="516.5182186234"/>
			<point x="611.5382469294" y="470.4078902512"/>
			<point x="466" y="359" type="curve" smooth="yes"/>
			<point x="233.550870603" y="184.4124319174"/>
			<point x="216.0576135856" y="152.526752783"/>
			<point x="209" y="88" type="curve" smooth="yes"/>
			<point x="204" y="50"/>
			<point x="146" y="147"/>
			<point x="186" y="131" type="curve" smooth="yes"/>
			<point x="218" y="118"/>
			<point x="246" y="108"/>
			<point x="276" y="108" type="curve" smooth="yes"/>
			<point x="401" y="108"/>
			<point x="502" y="139"/>
			<point x="503" y="202" type="curve" smooth="yes"/>
			<point x="504" y="236"/>
			<point x="451" y="259"/>
			<point x="336" y="314" type="curve" smooth="yes"/>
			<point x="95" y="430"/>
			<point x="62" y="471"/>
			<point x="63" y="547" type="curve" smooth="yes"/>
			<point x="63.971830986" y="650"/>
			<point x="162" y="720"/>
			<point x="332" y="712" type="curve" smooth="yes"/>
			<point x="423" y="709"/>
			<point x="454" y="669"/>
			<point x="453" y="625" type="curve" smooth="yes"/>
			<point x="452" y="606"/>
			<point x="435.4094214164" y="589.3934555808"/>
		</contour>
	</outline>
</glyph>
<glyph name="nine" format="2">
	<unicode hex="0039"/>
	<advance width="700"/>
	<outline>
		<contour>
			<point x="472" y="586" type="curve" smooth="yes"/>
			<point x="511" y="586"/>
			<point x="516" y="622"/>
			<point x="507" y="649" type="curve" smooth="yes"/>
			<point x="494" y="715"/>
			<point x="411" y="739"/>
			<point x="273" y="727" type="curve" smooth="yes"/>
			<point x="-95" y="717"/>
			<point x="-281" y="456"/>
			<point x="-245" y="246" type="curve" smooth="yes"/>
			<point x="-50" y="20"/>
			<point x="220" y="-27"/>
			<point x="512" y="78" type="curve" smooth="yes"/>
			<point x="624" y="188"/>
			<point x="755" y="306"/>
			<point x="727" y="430" type="curve" smooth="yes"/>
			<point x="727" y="496"/>
			<point x="511" y="516"/>
			<point x="459" y="358" type="curve" smooth="yes"/>
			<point x="431" y="71"/>
			<point x="489" y="-146"/>
			<point x="511" y="-240" type="curve" smooth="yes"/>
			<point x="525" y="-186"/>
			<point x="576" y="-134"/>
			<point x="643" y="-57" type="curve" smooth="yes"/>
			<point x="697" y="-29"/>
			<point x="707" y="35"/>
			<point x="679" y="107" type="curve" smooth="yes"/>
			<point x="636" y="195"/>
			<point x="590" y="250"/>
			<point x="597" y="497" type="curve" smooth="yes"/>
			<point x="623" y="424"/>
			<point x="593" y="387"/>
			<point x="607" y="392" type="curve"/>
			<point x="656" y="612"/>
			<point x="622" y="662"/>
			<point x="533" y="662" type="curve" smooth="yes"/>
			<point x="501" y="662"/>
			<point x="489" y="641"/>
			<point x="489" y="602" type="curve" smooth="yes"/>
			<point x="489" y="458"/>
			<point x="389" y="398"/>
			<point x="287" y="398" type="curve" smooth="yes"/>
			<point x="230" y="398"/>
			<point x="182" y="430"/>
			<point x="182" y="478" type="curve" smooth="yes"/>
			<point x="182" y="539"/>
			<point x="273" y="590"/>
			<point x="369" y="590" type="curve" smooth="yes"/>
			<point x="432" y="590"/>
			<point x="443" y="586"/>
		</contour>
	</outline>
</glyph>
<glyph name="question" format="2">
	<unicode hex="003F"/>
	<advance width="556"/>
	<outline>
		<contour>
			<point x="56" y="678" type="curve" smooth="yes"/>
			<point x="107" y="705"/>
			<point x="189" y="720"/>
			<point x="251" y="720" type="curve" smooth="yes"/>
			<point x="411" y="720"/>
			<point x="510" y="644"/>
			<point x="510" y="533" type="curve" smooth="yes"/>
			<point x="510" y="449"/>
			<point x="460" y="398"/>
			<point x="396" y="369" type="curve" smooth="yes"/>
			<point x="327" y="335"/>
			<point x="314" y="326"/>
			<point x="314" y="317" type="curve" smooth="yes"/>
			<point x="314" y="307"/>
			<point x="341" y="290"/>
			<point x="341" y="263" type="curve" smooth="yes"/>
			<point x="341" y="240"/>
			<point x="320" y="214"/>
			<point x="278" y="214" type="curve" smooth="yes"/>
			<point x="195" y="214"/>
			<point x="144" y="273"/>
			<point x="144" y="338" type="curve" smooth="yes"/>
			<point x="144" y="384"/>
			<point x="173" y="433"/>
			<point x="257" y="469" type="curve" smooth="yes"/>
			<point x="323" y="497"/>
			<point x="330" y="509"/>
			<point x="330" y="523" type="curve" smooth="yes"/>
			<point x="330" y="540"/>
			<point x="312" y="550"/>
			<point x="262" y="550" type="curve" smooth="yes"/>
			<point x="162" y="550"/>
			<point x="136" y="516"/>
			<point x="90" y="516" type="curve" smooth="yes"/>
			<point x="44" y="516"/>
			<point x="7" y="543"/>
			<point x="7" y="599" type="curve" smooth="yes"/>
			<point x="7" y="636"/>
			<point x="23" y="661"/>
		</contour>
		<contour>
			<point x="256" y="-13" type="curve" smooth="yes"/>
			<point x="320" y="-13"/>
			<point x="353" y="18"/>
			<point x="353" y="67" type="curve" smooth="yes"/>
			<point x="353" y="117"/>
			<point x="315" y="165"/>
			<point x="233" y="165" type="curve" smooth="yes"/>
			<point x="180" y="165"/>
			<point x="144" y="136"/>
			<point x="144" y="76" type="curve" smooth="yes"/>
			<point x="144" y="19"/>
			<point x="186" y="-13"/>
		</contour>
	</outline>
</glyph>
<glyph name="A" format="2">
	<unicode hex="0041"/>
	<advance width="723"/>
	<outline>
		<contour>
			<point x="639" y="-11" type="curve" smooth="yes"/>
			<point x="677" y="-11"/>
			<point x="703" y="13"/>
			<point x="703" y="52" type="curve" smooth="yes"/>
			<point x="703" y="88"/>
			<point x="627.2065311559" y="222.600596296"/>
			<point x="609" y="397" type="curve" smooth="yes"/>
			<point x="585" y="625"/>
			<point x="541" y="726"/>
			<point x="393" y="726" type="curve" smooth="yes"/>
			<point x="294" y="726"/>
			<point x="201" y="656"/>
			<point x="149" y="553" type="curve"/>
			<point x="226" y="578" type="line"/>
			<point x="182" y="619"/>
			<point x="151.9411764706" y="635"/>
			<point x="117" y="635" type="curve" smooth="yes"/>
			<point x="83" y="635"/>
			<point x="68" y="619"/>
			<point x="68" y="594" type="curve" smooth="yes"/>
			<point x="68" y="465"/>
			<point x="25" y="355"/>
			<point x="25" y="185" type="curve" smooth="yes"/>
			<point x="25" y="63"/>
			<point x="89.3768762677" y="-8"/>
			<point x="144" y="-8" type="curve" smooth="yes"/>
			<point x="185" y="-10"/>
			<point x="204" y="10"/>
			<point x="211" y="54" type="curve" smooth="yes"/>
			<point x="258.9562848187" y="337.7413518442"/>
			<point x="327" y="553"/>
			<point x="385" y="553" type="curve" smooth="yes"/>
			<point x="403" y="553"/>
			<point x="414" y="544"/>
			<point x="433" y="376" type="curve" smooth="yes"/>
			<point x="445.5342582637" y="268.9767179022"/>
			<point x="444" y="130"/>
			<point x="508" y="57" type="curve" smooth="yes"/>
			<point x="553" y="5"/>
			<point x="585.4929577465" y="-11"/>
		</contour>
		<contour>
			<point x="94" y="180" type="curve" smooth="yes"/>
			<point x="199" y="178"/>
			<point x="376" y="278"/>
			<point x="583" y="278" type="curve" smooth="yes"/>
			<point x="658" y="278"/>
			<point x="722" y="323"/>
			<point x="722" y="391" type="curve" smooth="yes"/>
			<point x="722" y="440"/>
			<point x="705" y="452"/>
			<point x="559" y="452" type="curve" smooth="yes"/>
			<point x="351" y="452"/>
			<point x="173" y="375"/>
			<point x="12" y="312" type="curve" smooth="yes"/>
			<point x="-12" y="303"/>
			<point x="-24" y="290"/>
			<point x="-24" y="268" type="curve" smooth="yes"/>
			<point x="-24" y="216.380952381"/>
			<point x="35" y="180"/>
		</contour>
	</outline>
</glyph>
<glyph name="B" format="2">
	<unicode hex="0042"/>
	<advance width="603"/>
	<outline>
		<contour>
			<point x="254" y="161"/>
			<point x="228" y="204"/>
			<point x="228" y="347" type="curve" smooth="yes"/>
			<point x="228" y="425"/>
			<point x="230" y="456"/>
			<point x="237" y="535" type="curve" smooth="yes"/>
			<point x="242" y="580"/>
			<point x="204" y="629"/>
			<point x="151" y="629" type="curve" smooth="yes"/>
			<point x="127" y="629"/>
			<point x="92" y="606"/>
			<point x="85" y="579" type="curve" smooth="yes"/>
			<point x="60" y="464"/>
			<point x="55" y="438"/>
			<point x="55" y="331" type="curve" smooth="yes"/>
			<point x="55" y="152"/>
			<point x="130" y="-10"/>
			<point x="257" y="-10" type="curve" smooth="yes"/>
			<point x="375" y="-10"/>
			<point x="543" y="53"/>
			<point x="543" y="222" type="curve" smooth="yes"/>
			<point x="543" y="289"/>
			<point x="495" y="362"/>
			<point x="352" y="378" type="curve"/>
			<point x="361" y="323" type="line"/>
			<point x="535" y="386"/>
			<point x="569" y="463"/>
			<point x="569" y="525" type="curve" smooth="yes"/>
			<point x="569" y="668"/>
			<point x="414" y="712"/>
			<point x="212" y="712" type="curve" smooth="yes"/>
			<point x="84" y="712"/>
			<point x="39" y="666"/>
			<point x="39" y="582" type="curve" smooth="yes"/>
			<point x="39" y="550"/>
			<point x="63" y="524"/>
			<point x="91" y="524" type="curve" smooth="yes"/>
			<point x="111" y="524"/>
			<point x="160" y="528"/>
			<point x="206" y="528" type="curve" smooth="yes"/>
			<point x="377" y="528"/>
			<point x="389" y="522"/>
			<point x="389" y="501" type="curve" smooth="yes"/>
			<point x="389" y="465"/>
			<point x="208" y="407"/>
			<point x="159" y="393" type="curve" smooth="yes"/>
			<point x="138" y="387"/>
			<point x="120" y="359"/>
			<point x="120" y="336" type="curve" smooth="yes"/>
			<point x="120" y="287"/>
			<point x="146" y="252"/>
			<point x="183" y="253" type="curve" smooth="yes"/>
			<point x="312" y="256"/>
			<point x="373" y="244"/>
			<point x="373" y="204" type="curve" smooth="yes"/>
			<point x="373" y="193"/>
			<point x="298" y="161"/>
			<point x="266" y="161" type="curve" smooth="yes"/>
		</contour>
	</outline>
</glyph>
<glyph name="C" format="2">
	<unicode hex="0043"/>
	<advance width="648"/>
	<outline>
		<contour>
			<point x="331" y="-10" type="curve" smooth="yes"/>
			<point x="528.8320610687" y="-10"/>
			<point x="627" y="54.2954545455"/>
			<point x="627" y="148" type="curve" smooth="yes"/>
			<point x="627" y="188"/>
			<point x="610" y="219"/>
			<point x="583" y="219" type="curve" smooth="yes"/>
			<point x="545" y="219"/>
			<point x="474.5308641975" y="157"/>
			<point x="342" y="157" type="curve" smooth="yes"/>
			<point x="242.8307692308" y="157"/>
			<point x="180" y="198"/>
			<point x="180" y="274" type="curve" smooth="yes"/>
			<point x="180" y="397"/>
			<point x="301" y="530"/>
			<point x="451" y="530" type="curve" smooth="yes"/>
			<point x="467" y="530"/>
			<point x="470" y="524"/>
			<point x="470" y="510" type="curve" smooth="yes"/>
			<point x="470" y="498.3125"/>
			<point x="480" y="488"/>
			<point x="500" y="488" type="curve" smooth="yes"/>
			<point x="555" y="488"/>
			<point x="614" y="550"/>
			<point x="614" y="619" type="curve" smooth="yes"/>
			<point x="614" y="675"/>
			<point x="579" y="711"/>
			<point x="491" y="711" type="curve" smooth="yes"/>
			<point x="238" y="711"/>
			<point x="5" y="506"/>
			<point x="5" y="289" type="curve" smooth="yes"/>
			<point x="5" y="121"/>
			<point x="138" y="-10"/>
		</contour>
	</outline>
</glyph>
<glyph name="D" format="2">
	<unicode hex="0044"/>
	<advance width="655"/>
	<outline>
		<contour>
			<point x="197" y="-10" type="curve" smooth="yes"/>
			<point x="412" y="-10"/>
			<point x="648" y="234"/>
			<point x="648" y="462" type="curve" smooth="yes"/>
			<point x="648" y="603"/>
			<point x="540" y="709"/>
			<point x="355" y="709" type="curve" smooth="yes"/>
			<point x="219.5315068493" y="709"/>
			<point x="22.0489462273" y="653.0489462273"/>
			<point x="-14" y="617" type="curve" smooth="yes"/>
			<point x="-26.6003007157" y="604.3996992843"/>
			<point x="-29" y="594.5957446809"/>
			<point x="-29" y="578" type="curve" smooth="yes"/>
			<point x="-29" y="520"/>
			<point x="34.75" y="473"/>
			<point x="106" y="473" type="curve" smooth="yes"/>
			<point x="168" y="473"/>
			<point x="224" y="532"/>
			<point x="359" y="532" type="curve" smooth="yes"/>
			<point x="451" y="532"/>
			<point x="472" y="506"/>
			<point x="472" y="454" type="curve" smooth="yes"/>
			<point x="472" y="288"/>
			<point x="336" y="210"/>
			<point x="142" y="145" type="curve"/>
			<point x="242" y="109" type="line"/>
			<point x="237.5696471674" y="150.3499597708"/>
			<point x="234" y="183"/>
			<point x="234" y="206" type="curve" smooth="yes"/>
			<point x="234" y="265"/>
			<point x="244" y="419.8226744186"/>
			<point x="244" y="519" type="curve" smooth="yes"/>
			<point x="244" y="559"/>
			<point x="206" y="591"/>
			<point x="158" y="591" type="curve" smooth="yes"/>
			<point x="97" y="591"/>
			<point x="73" y="574"/>
			<point x="70" y="532" type="curve" smooth="yes"/>
			<point x="61" y="410"/>
			<point x="56" y="302"/>
			<point x="56" y="174" type="curve" smooth="yes"/>
			<point x="56" y="83"/>
			<point x="115" y="-10"/>
		</contour>
	</outline>
</glyph>
<glyph name="E" format="2">
	<unicode hex="0045"/>
	<advance width="673"/>
	<outline>
		<contour>
			<point x="61" y="523" type="curve" smooth="yes"/>
			<point x="39" y="437"/>
			<point x="34" y="353"/>
			<point x="34" y="293" type="curve" smooth="yes"/>
			<point x="34" y="130"/>
			<point x="128" y="-7"/>
			<point x="327" y="-7" type="curve" smooth="yes"/>
			<point x="523" y="-7"/>
			<point x="629" y="44.8405797101"/>
			<point x="629" y="139" type="curve" smooth="yes"/>
			<point x="629" y="177.0857142857"/>
			<point x="616" y="201"/>
			<point x="566" y="201" type="curve" smooth="yes"/>
			<point x="524" y="201"/>
			<point x="449" y="168"/>
			<point x="327" y="168" type="curve" smooth="yes"/>
			<point x="253" y="168"/>
			<point x="210" y="222"/>
			<point x="210" y="291" type="curve" smooth="yes"/>
			<point x="210" y="402"/>
			<point x="234" y="500"/>
			<point x="234" y="542" type="curve" smooth="yes"/>
			<point x="234" y="583"/>
			<point x="190" y="606"/>
			<point x="165" y="606" type="curve" smooth="yes"/>
			<point x="114" y="606"/>
			<point x="75" y="577"/>
		</contour>
		<contour>
			<point x="167" y="235" type="curve" smooth="yes"/>
			<point x="236" y="251"/>
			<point x="309" y="264"/>
			<point x="443" y="272" type="curve" smooth="yes"/>
			<point x="499" y="276"/>
			<point x="540" y="312"/>
			<point x="540" y="378" type="curve" smooth="yes"/>
			<point x="540" y="432"/>
			<point x="524" y="444"/>
			<point x="454" y="444" type="curve" smooth="yes"/>
			<point x="314" y="439"/>
			<point x="238" y="425"/>
			<point x="173" y="410" type="curve" smooth="yes"/>
			<point x="136" y="401"/>
			<point x="108" y="364"/>
			<point x="108" y="322" type="curve" smooth="yes"/>
			<point x="108" y="269"/>
			<point x="120" y="225"/>
		</contour>
		<contour>
			<point x="146" y="502" type="curve" smooth="yes"/>
			<point x="206" y="502"/>
			<point x="394" y="545"/>
			<point x="591" y="545" type="curve" smooth="yes"/>
			<point x="622" y="545"/>
			<point x="632" y="568"/>
			<point x="632" y="597" type="curve" smooth="yes"/>
			<point x="632" y="660.5436328377"/>
			<point x="566" y="712"/>
			<point x="455" y="712" type="curve" smooth="yes"/>
			<point x="369" y="712"/>
			<point x="196.5923809149" y="697.8670178871"/>
			<point x="56" y="652" type="curve" smooth="yes"/>
			<point x="22" y="641"/>
			<point x="15" y="622"/>
			<point x="15" y="597" type="curve" smooth="yes"/>
			<point x="15" y="546.1111111112"/>
			<point x="60" y="502"/>
		</contour>
	</outline>
</glyph>
<glyph name="F" format="2">
	<unicode hex="0046"/>
	<advance width="571"/>
	<outline>
		<contour>
			<point x="236" y="270" type="curve" smooth="yes"/>
			<point x="236" y="428"/>
			<point x="248" y="514"/>
			<point x="248" y="547" type="curve" smooth="yes"/>
			<point x="248" y="578"/>
			<point x="229.8421052632" y="578"/>
			<point x="179" y="578" type="curve" smooth="yes"/>
			<point x="125" y="578"/>
			<point x="92" y="555"/>
			<point x="78" y="484" type="curve" smooth="yes"/>
			<point x="66" y="425"/>
			<point x="62" y="380.5555555556"/>
			<point x="62" y="294" type="curve" smooth="yes"/>
			<point x="62" y="175"/>
			<point x="82" y="89"/>
			<point x="117" y="49" type="curve" smooth="yes"/>
			<point x="156" y="2"/>
			<point x="214" y="-10"/>
			<point x="252" y="-10" type="curve" smooth="yes"/>
			<point x="295.2857142857" y="-10"/>
			<point x="308" y="4"/>
			<point x="308" y="36" type="curve" smooth="yes"/>
			<point x="308" y="71"/>
			<point x="236" y="112"/>
		</contour>
		<contour>
			<point x="499" y="536" type="curve" smooth="yes"/>
			<point x="532" y="536"/>
			<point x="543" y="552"/>
			<point x="543" y="591" type="curve" smooth="yes"/>
			<point x="543" y="661"/>
			<point x="476" y="707"/>
			<point x="402" y="711" type="curve" smooth="yes"/>
			<point x="283" y="717"/>
			<point x="137" y="677"/>
			<point x="40" y="651" type="curve" smooth="yes"/>
			<point x="3" y="642"/>
			<point x="-10" y="616"/>
			<point x="-10" y="594" type="curve" smooth="yes"/>
			<point x="-10" y="548"/>
			<point x="34" y="490"/>
			<point x="131" y="490" type="curve" smooth="yes"/>
			<point x="175" y="490"/>
			<point x="286.237113402" y="536"/>
		</contour>
		<contour>
			<point x="184" y="181" type="curve" smooth="yes"/>
			<point x="236" y="195"/>
			<point x="349.0978015964" y="214.206176943"/>
			<point x="422" y="218" type="curve" smooth="yes"/>
			<point x="469" y="221"/>
			<point x="537" y="257.6835443038"/>
			<point x="537" y="335" type="curve" smooth="yes"/>
			<point x="537" y="373"/>
			<point x="522.966101695" y="387"/>
			<point x="461" y="387" type="curve" smooth="yes"/>
			<point x="352" y="382"/>
			<point x="246.1336042838" y="371.9778293874"/>
			<point x="170" y="354" type="curve" smooth="yes"/>
			<point x="131.5382167878" y="343.9076433576"/>
			<point x="91" y="293"/>
			<point x="91" y="250" type="curve" smooth="yes"/>
			<point x="91" y="204"/>
			<point x="120.8940538202" y="165.1986786266"/>
		</contour>
	</outline>
</glyph>
<glyph name="G" format="2">
	<unicode hex="0047"/>
	<advance width="739"/>
	<outline>
		<contour>
			<point x="385" y="246" type="curve" smooth="yes"/>
			<point x="440" y="246"/>
			<point x="502" y="273"/>
			<point x="666" y="273" type="curve" smooth="yes"/>
			<point x="732" y="273"/>
			<point x="760" y="320"/>
			<point x="760" y="371" type="curve" smooth="yes"/>
			<point x="760" y="416"/>
			<point x="741" y="439"/>
			<point x="644" y="439" type="curve" smooth="yes"/>
			<point x="527" y="437"/>
			<point x="437" y="422"/>
			<point x="357" y="398" type="curve" smooth="yes"/>
			<point x="307" y="384"/>
			<point x="294" y="368"/>
			<point x="294" y="333" type="curve" smooth="yes"/>
			<point x="294" y="283"/>
			<point x="336" y="246"/>
		</contour>
		<contour>
			<point x="674" y="-109" type="curve" smooth="yes"/>
			<point x="699" y="-109"/>
			<point x="738" y="-91"/>
			<point x="738" y="-51" type="curve" smooth="yes"/>
			<point x="738" y="-28"/>
			<point x="734" y="-19"/>
			<point x="712" y="28" type="curve" smooth="yes"/>
			<point x="679" y="95"/>
			<point x="669" y="147"/>
			<point x="669" y="289" type="curve" smooth="yes"/>
			<point x="669" y="326"/>
			<point x="639" y="348"/>
			<point x="585" y="348" type="curve" smooth="yes"/>
			<point x="540" y="348"/>
			<point x="525.9223887983" y="334.5164190519"/>
			<point x="501" y="296" type="curve" smooth="yes"/>
			<point x="437" y="196"/>
			<point x="340" y="167"/>
			<point x="264" y="167" type="curve" smooth="yes"/>
			<point x="211" y="167"/>
			<point x="184" y="195"/>
			<point x="184" y="254" type="curve" smooth="yes"/>
			<point x="184" y="361"/>
			<point x="295" y="508"/>
			<point x="413" y="508" type="curve" smooth="yes"/>
			<point x="456" y="508"/>
			<point x="438" y="480"/>
			<point x="484" y="480" type="curve" smooth="yes"/>
			<point x="527" y="480"/>
			<point x="579" y="569.2861126603"/>
			<point x="579" y="634" type="curve" smooth="yes"/>
			<point x="579" y="674"/>
			<point x="552" y="708"/>
			<point x="485" y="708" type="curve" smooth="yes"/>
			<point x="238" y="708"/>
			<point x="-5" y="479"/>
			<point x="-5" y="237" type="curve" smooth="yes"/>
			<point x="-5" y="88"/>
			<point x="88" y="-10"/>
			<point x="247" y="-10" type="curve" smooth="yes"/>
			<point x="340" y="-10"/>
			<point x="441" y="25"/>
			<point x="509" y="88" type="curve"/>
			<point x="520" y="31"/>
			<point x="532.8181252553" y="-11.0527146393"/>
			<point x="556" y="-51" type="curve" smooth="yes"/>
			<point x="582.0354463375" y="-91.7517142988"/>
			<point x="619" y="-109"/>
		</contour>
	</outline>
</glyph>
<glyph name="H" format="2">
	<unicode hex="0048"/>
	<advance width="710"/>
	<outline>
		<contour>
			<point x="173" y="-12" type="curve" smooth="yes"/>
			<point x="209" y="-12"/>
			<point x="238" y="19"/>
			<point x="238" y="56" type="curve" smooth="yes"/>
			<point x="238" y="197"/>
			<point x="223" y="402"/>
			<point x="223" y="610" type="curve" smooth="yes"/>
			<point x="223" y="677"/>
			<point x="170" y="709"/>
			<point x="118" y="709" type="curve" smooth="yes"/>
			<point x="59" y="709"/>
			<point x="34" y="684"/>
			<point x="34" y="634" type="curve" smooth="yes"/>
			<point x="34" y="690"/>
			<point x="71" y="265"/>
			<point x="63" y="119" type="curve" smooth="yes"/>
			<point x="59" y="60"/>
			<point x="121" y="-12"/>
		</contour>
		<contour>
			<point x="555" y="-10" type="curve" smooth="yes"/>
			<point x="609" y="-10"/>
			<point x="639" y="19"/>
			<point x="633" y="45" type="curve" smooth="yes"/>
			<point x="620" y="112"/>
			<point x="615" y="176"/>
			<point x="614" y="233" type="curve" smooth="yes"/>
			<point x="613" y="316"/>
			<point x="620" y="448"/>
			<point x="620" y="554" type="curve" smooth="yes"/>
			<point x="620" y="650"/>
			<point x="567" y="704"/>
			<point x="513" y="704" type="curve" smooth="yes"/>
			<point x="484" y="704"/>
			<point x="457" y="687"/>
			<point x="457" y="648" type="curve" smooth="yes"/>
			<point x="457" y="561"/>
			<point x="442" y="430"/>
			<point x="442" y="291" type="curve" smooth="yes"/>
			<point x="442" y="271"/>
			<point x="427.2587815578" y="-10"/>
		</contour>
		<contour>
			<point x="178" y="276" type="curve" smooth="yes"/>
			<point x="238.612244898" y="276"/>
			<point x="337.7959183673" y="306"/>
			<point x="610" y="306" type="curve" smooth="yes"/>
			<point x="640.7450980392" y="306"/>
			<point x="659" y="327.1304347826"/>
			<point x="659" y="360" type="curve" smooth="yes"/>
			<point x="659" y="400.585106383"/>
			<point x="615.5365853659" y="469"/>
			<point x="497" y="469" type="curve" smooth="yes"/>
			<point x="346.5845410628" y="469"/>
			<point x="192.2530792392" y="467.4578521777"/>
			<point x="49" y="423" type="curve" smooth="yes"/>
			<point x="21.4550163768" y="414.6167441147"/>
			<point x="15" y="400.568627451"/>
			<point x="15" y="379" type="curve" smooth="yes"/>
			<point x="15" y="328.5729166667"/>
			<point x="73" y="276"/>
		</contour>
	</outline>
</glyph>
<glyph name="I" format="2">
	<unicode hex="0049"/>
	<advance width="608"/>
	<outline>
		<contour>
			<point x="186" y="-11" type="curve" smooth="yes"/>
			<point x="226.6930486027" y="-11"/>
			<point x="320.1319523514" y="0"/>
			<point x="433" y="0" type="curve" smooth="yes"/>
			<point x="539.1081081081" y="0"/>
			<point x="584" y="43.5384615385"/>
			<point x="584" y="98" type="curve" smooth="yes"/>
			<point x="584" y="135"/>
			<point x="561" y="164"/>
			<point x="458" y="164" type="curve" smooth="yes"/>
			<point x="304.6291390728" y="164"/>
			<point x="269" y="183"/>
			<point x="78" y="151" type="curve" smooth="yes"/>
			<point x="42" y="145"/>
			<point x="23" y="118"/>
			<point x="23" y="88" type="curve" smooth="yes"/>
			<point x="23" y="30.6"/>
			<point x="70.4757281553" y="-11"/>
		</contour>
		<contour>
			<point x="125" y="513" type="curve" smooth="yes"/>
			<point x="182" y="513"/>
			<point x="262" y="531"/>
			<point x="432" y="531" type="curve" smooth="yes"/>
			<point x="504" y="531"/>
			<point x="569" y="573"/>
			<point x="569" y="635" type="curve" smooth="yes"/>
			<point x="569" y="695.8823529412"/>
			<point x="541.0388349515" y="710"/>
			<point x="449" y="710" type="curve" smooth="yes"/>
			<point x="362.9432989691" y="710"/>
			<point x="242" y="701"/>
			<point x="107" y="682" type="curve" smooth="yes"/>
			<point x="56" y="675"/>
			<point x="19" y="646.7096774194"/>
			<point x="19" y="602" type="curve" smooth="yes"/>
			<point x="19" y="554.0769230769"/>
			<point x="45.5" y="513"/>
		</contour>
		<contour>
			<point x="310" y="120" type="curve" smooth="yes"/>
			<point x="351" y="120"/>
			<point x="374" y="143"/>
			<point x="374" y="189" type="curve" smooth="yes"/>
			<point x="374" y="326.9378238342"/>
			<point x="391" y="437.3114754098"/>
			<point x="391" y="495" type="curve" smooth="yes"/>
			<point x="391" y="545"/>
			<point x="342" y="585"/>
			<point x="283" y="585" type="curve" smooth="yes"/>
			<point x="232" y="585"/>
			<point x="216" y="558"/>
			<point x="216" y="504" type="curve" smooth="yes"/>
			<point x="216" y="422.0217983651"/>
			<point x="201" y="310.4392764858"/>
			<point x="201" y="197" type="curve" smooth="yes"/>
			<point x="201" y="150"/>
			<point x="244" y="120"/>
		</contour>
	</outline>
</glyph>
<glyph name="J" format="2">
	<unicode hex="004A"/>
	<advance width="590"/>
	<outline>
		<contour>
			<point x="275" y="-12" type="curve" smooth="yes"/>
			<point x="464.5402298851" y="-12"/>
			<point x="566" y="68.3421052632"/>
			<point x="566" y="246" type="curve" smooth="yes"/>
			<point x="566" y="335.5999831692"/>
			<point x="527" y="502"/>
			<point x="494" y="591" type="curve" smooth="yes"/>
			<point x="470" y="656"/>
			<point x="428.8623995422" y="673.8610742988"/>
			<point x="354" y="676" type="curve" smooth="yes"/>
			<point x="320" y="676"/>
			<point x="292" y="644"/>
			<point x="306" y="607" type="curve" smooth="yes"/>
			<point x="345.0524721303" y="514.1765895958"/>
			<point x="388" y="356"/>
			<point x="388" y="272" type="curve" smooth="yes"/>
			<point x="388" y="195"/>
			<point x="360" y="161"/>
			<point x="275" y="161" type="curve" smooth="yes"/>
			<point x="201" y="161"/>
			<point x="181" y="183"/>
			<point x="181" y="204" type="curve" smooth="yes"/>
			<point x="181" y="234"/>
			<point x="207" y="257.6842105263"/>
			<point x="207" y="289" type="curve" smooth="yes"/>
			<point x="207" y="316"/>
			<point x="190.3333333333" y="330"/>
			<point x="157" y="330" type="curve" smooth="yes"/>
			<point x="52" y="330"/>
			<point x="12" y="232.1538461538"/>
			<point x="12" y="171" type="curve" smooth="yes"/>
			<point x="12" y="56.7572254335"/>
			<point x="119.1890756302" y="-12"/>
		</contour>
		<contour>
			<point x="199" y="526" type="curve" smooth="yes"/>
			<point x="279.4761904762" y="526"/>
			<point x="406.0764281974" y="544"/>
			<point x="537" y="544" type="curve" smooth="yes"/>
			<point x="582.5" y="544"/>
			<point x="607" y="565"/>
			<point x="607" y="604" type="curve" smooth="yes"/>
			<point x="607" y="693"/>
			<point x="519.2105263158" y="712"/>
			<point x="441" y="712" type="curve" smooth="yes"/>
			<point x="340.8533442573" y="712"/>
			<point x="290.074829932" y="700"/>
			<point x="218" y="700" type="curve" smooth="yes"/>
			<point x="177" y="700"/>
			<point x="136.9014084507" y="713"/>
			<point x="88" y="713" type="curve" smooth="yes"/>
			<point x="56.064516129" y="713"/>
			<point x="38" y="691.2142857143"/>
			<point x="38" y="657" type="curve" smooth="yes"/>
			<point x="38" y="561.4509803922"/>
			<point x="133" y="526"/>
		</contour>
	</outline>
</glyph>
<glyph name="K" format="2">
	<unicode hex="004B"/>
	<advance width="650"/>
	<outline>
		<contour>
			<point x="153" y="-11" type="curve" smooth="yes"/>
			<point x="185" y="-11"/>
			<point x="205" y="8"/>
			<point x="205" y="39" type="curve" smooth="yes"/>
			<point x="205" y="87"/>
			<point x="193" y="123"/>
			<point x="193" y="193" type="curve" smooth="yes"/>
			<point x="193" y="332"/>
			<point x="216" y="467"/>
			<point x="216" y="552" type="curve" smooth="yes"/>
			<point x="216" y="617"/>
			<point x="201" y="710"/>
			<point x="90" y="710" type="curve" smooth="yes"/>
			<point x="46" y="710"/>
			<point x="31" y="689"/>
			<point x="31" y="656" type="curve" smooth="yes"/>
			<point x="31" y="628.4807692308"/>
			<point x="41" y="607.0769230769"/>
			<point x="41" y="550" type="curve" smooth="yes"/>
			<point x="41" y="482.3726027397"/>
			<point x="19" y="345.1287671233"/>
			<point x="19" y="187" type="curve" smooth="yes"/>
			<point x="19" y="41"/>
			<point x="49.2121212122" y="-11"/>
		</contour>
		<contour>
			<point x="577" y="-11" type="curve" smooth="yes"/>
			<point x="622.9130434783" y="-11"/>
			<point x="641" y="15"/>
			<point x="641" y="57" type="curve" smooth="yes"/>
			<point x="641" y="110"/>
			<point x="625.1689612398" y="147.9644292127"/>
			<point x="587" y="156" type="curve" smooth="yes"/>
			<point x="446.9540087405" y="185.5749298312"/>
			<point x="333" y="284"/>
			<point x="333" y="317" type="curve" smooth="yes"/>
			<point x="333" y="364"/>
			<point x="425" y="471"/>
			<point x="512" y="523" type="curve" smooth="yes"/>
			<point x="567" y="555"/>
			<point x="578" y="578"/>
			<point x="578" y="628" type="curve" smooth="yes"/>
			<point x="578" y="685"/>
			<point x="541.0579268293" y="713"/>
			<point x="494" y="713" type="curve" smooth="yes"/>
			<point x="471.643678161" y="713"/>
			<point x="444" y="703"/>
			<point x="414" y="682" type="curve" smooth="yes"/>
			<point x="287" y="588"/>
			<point x="173" y="424"/>
			<point x="173" y="292" type="curve" smooth="yes"/>
			<point x="173" y="102"/>
			<point x="463.5479452055" y="-11"/>
		</contour>
	</outline>
</glyph>
<glyph name="L" format="2">
	<unicode hex="004C"/>
	<advance width="556"/>
	<outline>
		<contour>
			<point x="266" y="-9" type="curve" smooth="yes"/>
			<point x="343" y="-9"/>
			<point x="436" y="9"/>
			<point x="487" y="52" type="curve" smooth="yes"/>
			<point x="522" y="82"/>
			<point x="535" y="121"/>
			<point x="535" y="163" type="curve" smooth="yes"/>
			<point x="535" y="198"/>
			<point x="513" y="232"/>
			<point x="481" y="232" type="curve" smooth="yes"/>
			<point x="434" y="232"/>
			<point x="419" y="164"/>
			<point x="273" y="164" type="curve" smooth="yes"/>
			<point x="211" y="164"/>
			<point x="188" y="185"/>
			<point x="188" y="234" type="curve" smooth="yes"/>
			<point x="188" y="293"/>
			<point x="240" y="441"/>
			<point x="240" y="570" type="curve" smooth="yes"/>
			<point x="240" y="630"/>
			<point x="206" y="710"/>
			<point x="134" y="710" type="curve" smooth="yes"/>
			<point x="86" y="710"/>
			<point x="67" y="680"/>
			<point x="67" y="638" type="curve" smooth="yes"/>
			<point x="67" y="533"/>
			<point x="16" y="401"/>
			<point x="16" y="251" type="curve" smooth="yes"/>
			<point x="16" y="83"/>
			<point x="103" y="-9"/>
		</contour>
	</outline>
</glyph>
<glyph name="M" format="2">
	<unicode hex="004D"/>
	<advance width="936"/>
	<outline>
		<contour>
			<point x="203" y="541" type="curve" smooth="yes"/>
			<point x="207" y="467"/>
			<point x="69" y="464"/>
			<point x="114" y="538" type="curve" smooth="yes"/>
			<point x="173" y="626"/>
			<point x="248" y="709"/>
			<point x="296" y="709" type="curve" smooth="yes"/>
			<point x="393" y="709"/>
			<point x="461" y="665"/>
			<point x="489" y="420" type="curve" smooth="yes"/>
			<point x="498" y="358"/>
			<point x="509" y="304"/>
			<point x="509" y="255" type="curve" smooth="yes"/>
			<point x="508" y="234"/>
			<point x="461" y="297"/>
			<point x="472" y="319" type="curve" smooth="yes"/>
			<point x="491" y="358"/>
			<point x="524" y="460"/>
			<point x="551" y="547" type="curve" smooth="yes"/>
			<point x="578" y="633"/>
			<point x="620" y="717"/>
			<point x="709" y="717" type="curve" smooth="yes"/>
			<point x="790" y="717"/>
			<point x="881" y="697"/>
			<point x="892" y="470" type="curve" smooth="yes"/>
			<point x="896" y="351"/>
			<point x="916" y="191"/>
			<point x="953" y="91" type="curve" smooth="yes"/>
			<point x="969" y="50"/>
			<point x="961" y="-9"/>
			<point x="906" y="-9" type="curve" smooth="yes"/>
			<point x="849" y="-9"/>
			<point x="793" y="12"/>
			<point x="753" y="67" type="curve" smooth="yes"/>
			<point x="696" y="143"/>
			<point x="707" y="307"/>
			<point x="696" y="407" type="curve" smooth="yes"/>
			<point x="691" y="462"/>
			<point x="682" y="497"/>
			<point x="652" y="547" type="curve" smooth="yes"/>
			<point x="625" y="589"/>
			<point x="754" y="595"/>
			<point x="733" y="531" type="curve" smooth="yes"/>
			<point x="710" y="461"/>
			<point x="648" y="283"/>
			<point x="560" y="44" type="curve" smooth="yes"/>
			<point x="546" y="7"/>
			<point x="512" y="-9"/>
			<point x="488" y="-9" type="curve" smooth="yes"/>
			<point x="468" y="-9"/>
			<point x="435" y="2"/>
			<point x="420" y="23" type="curve" smooth="yes"/>
			<point x="379" y="77"/>
			<point x="352" y="187"/>
			<point x="336" y="291" type="curve" smooth="yes"/>
			<point x="325" y="364"/>
			<point x="318" y="407"/>
			<point x="291" y="461" type="curve" smooth="yes"/>
			<point x="262" y="524"/>
			<point x="354" y="544"/>
			<point x="305" y="473" type="curve" smooth="yes"/>
			<point x="247" y="380"/>
			<point x="202" y="219"/>
			<point x="202" y="24" type="curve" smooth="yes"/>
			<point x="202" y="2"/>
			<point x="175" y="-12"/>
			<point x="151" y="-12" type="curve" smooth="yes"/>
			<point x="22.1759218632" y="-12"/>
			<point x="17" y="138.4032676862"/>
			<point x="17" y="243" type="curve" smooth="yes"/>
			<point x="17" y="332"/>
			<point x="25" y="420"/>
			<point x="25" y="499" type="curve" smooth="yes"/>
			<point x="25" y="546.88"/>
			<point x="13" y="594"/>
			<point x="13" y="632" type="curve" smooth="yes"/>
			<point x="13" y="650"/>
			<point x="25.2666666667" y="672"/>
			<point x="59" y="672" type="curve" smooth="yes"/>
			<point x="149" y="672"/>
			<point x="203" y="601"/>
		</contour>
	</outline>
</glyph>
<glyph name="N" format="2">
	<unicode hex="004E"/>
	<advance width="773"/>
	<outline>
		<contour>
			<point x="117" y="-18" type="curve" smooth="yes"/>
			<point x="165" y="-18"/>
			<point x="192" y="4"/>
			<point x="202" y="41" type="curve" smooth="yes"/>
			<point x="222" y="114"/>
			<point x="233" y="217"/>
			<point x="233" y="342" type="curve" smooth="yes"/>
			<point x="233" y="392.0270793036"/>
			<point x="230.9416085224" y="420.3609654977"/>
			<point x="220" y="488" type="curve"/>
			<point x="189" y="482" type="line"/>
			<point x="345" y="256"/>
			<point x="391" y="-20"/>
			<point x="567" y="-20" type="curve" smooth="yes"/>
			<point x="697" y="-20"/>
			<point x="718" y="90.1011673152"/>
			<point x="718" y="242" type="curve" smooth="yes"/>
			<point x="718" y="391"/>
			<point x="697" y="468"/>
			<point x="723" y="597" type="curve" smooth="yes"/>
			<point x="732.0446719275" y="640.2361230452"/>
			<point x="715" y="715"/>
			<point x="622" y="715" type="curve" smooth="yes"/>
			<point x="590" y="715"/>
			<point x="570" y="694"/>
			<point x="560" y="655" type="curve" smooth="yes"/>
			<point x="523" y="517"/>
			<point x="556" y="387.7115839243"/>
			<point x="556" y="227" type="curve" smooth="yes"/>
			<point x="556" y="139"/>
			<point x="519" y="116"/>
			<point x="496" y="106" type="curve"/>
			<point x="572" y="136" type="line"/>
			<point x="464.845849344" y="236.0105406123"/>
			<point x="366.3899082569" y="710"/>
			<point x="126" y="710" type="curve" smooth="yes"/>
			<point x="74" y="710"/>
			<point x="47" y="678.2077922078"/>
			<point x="47" y="638" type="curve" smooth="yes"/>
			<point x="47" y="605"/>
			<point x="63" y="457"/>
			<point x="63" y="342" type="curve" smooth="yes"/>
			<point x="63" y="132.51590915"/>
			<point x="39" y="102"/>
			<point x="39" y="46" type="curve" smooth="yes"/>
			<point x="39" y="13"/>
			<point x="59" y="-18"/>
		</contour>
	</outline>
</glyph>
<glyph name="O" format="2">
	<unicode hex="004F"/>
	<advance width="706"/>
	<outline>
		<contour>
			<point x="310" y="481" type="curve" smooth="yes"/>
			<point x="216" y="407"/>
			<point x="190" y="363"/>
			<point x="190" y="290" type="curve" smooth="yes"/>
			<point x="190" y="204"/>
			<point x="254" y="164"/>
			<point x="337" y="164" type="curve" smooth="yes"/>
			<point x="433" y="164"/>
			<point x="516" y="224"/>
			<point x="516" y="300" type="curve" smooth="yes"/>
			<point x="516" y="401"/>
			<point x="435" y="538"/>
			<point x="351" y="538" type="curve" smooth="yes"/>
			<point x="342" y="538"/>
			<point x="339" y="528"/>
			<point x="339" y="514" type="curve" smooth="yes"/>
			<point x="339" y="484"/>
			<point x="322" y="469"/>
			<point x="304" y="469" type="curve" smooth="yes"/>
			<point x="250" y="469"/>
			<point x="195" y="515"/>
			<point x="195" y="606" type="curve" smooth="yes"/>
			<point x="195" y="661"/>
			<point x="249" y="711"/>
			<point x="344" y="711" type="curve" smooth="yes"/>
			<point x="534" y="711"/>
			<point x="686" y="493"/>
			<point x="686" y="300" type="curve" smooth="yes"/>
			<point x="686" y="131"/>
			<point x="520" y="-10"/>
			<point x="337" y="-10" type="curve" smooth="yes"/>
			<point x="165" y="-10"/>
			<point x="20" y="110"/>
			<point x="20" y="290" type="curve" smooth="yes"/>
			<point x="20" y="488"/>
			<point x="205" y="618"/>
			<point x="247" y="618" type="curve" smooth="yes"/>
			<point x="265" y="618"/>
			<point x="298" y="607"/>
			<point x="312" y="589" type="curve" smooth="yes"/>
			<point x="335" y="559"/>
			<point x="340" y="505"/>
		</contour>
	</outline>
</glyph>
<glyph name="P" format="2">
	<unicode hex="0050"/>
	<advance width="590"/>
	<outline>
		<contour>
			<point x="42" y="135" type="curve" smooth="yes"/>
			<point x="42" y="30"/>
			<point x="90" y="-10"/>
			<point x="161" y="-10" type="curve" smooth="yes"/>
			<point x="210" y="-10"/>
			<point x="220" y="35"/>
			<point x="220" y="130" type="curve" smooth="yes"/>
			<point x="220" y="272"/>
			<point x="176" y="366"/>
			<point x="176" y="466" type="curve" smooth="yes"/>
			<point x="176" y="509"/>
			<point x="221" y="533"/>
			<point x="310" y="533" type="curve" smooth="yes"/>
			<point x="355" y="533"/>
			<point x="398" y="516"/>
			<point x="398" y="480" type="curve" smooth="yes"/>
			<point x="398" y="399"/>
			<point x="321" y="308"/>
			<point x="246" y="308" type="curve" smooth="yes"/>
			<point x="189" y="308"/>
			<point x="177" y="326"/>
			<point x="152" y="326" type="curve" smooth="yes"/>
			<point x="117" y="326"/>
			<point x="89" y="304"/>
			<point x="89" y="263" type="curve" smooth="yes"/>
			<point x="89" y="196"/>
			<point x="159" y="133"/>
			<point x="253" y="133" type="curve" smooth="yes"/>
			<point x="426" y="133"/>
			<point x="571" y="312"/>
			<point x="571" y="480" type="curve" smooth="yes"/>
			<point x="571" y="625"/>
			<point x="453" y="708"/>
			<point x="309" y="708" type="curve" smooth="yes"/>
			<point x="85" y="708"/>
			<point x="3" y="612"/>
			<point x="3" y="466" type="curve" smooth="yes"/>
			<point x="3" y="363"/>
			<point x="42" y="311"/>
		</contour>
	</outline>
</glyph>
<glyph name="Q" format="2">
	<unicode hex="0051"/>
	<advance width="715"/>
	<outline>
		<contour>
			<point x="471" y="257" type="curve" smooth="yes"/>
			<point x="499.2088861567" y="219.9758369193"/>
			<point x="534.977277822" y="85.9679687997"/>
			<point x="593" y="13" type="curve" smooth="yes"/>
			<point x="657.5" y="-71"/>
			<point x="634" y="-168"/>
			<point x="555" y="-168" type="curve" smooth="yes"/>
			<point x="523" y="-168"/>
			<point x="497" y="-157"/>
			<point x="463" y="-119" type="curve" smooth="yes"/>
			<point x="401" y="-49"/>
			<point x="352.3699401958" y="115.9703895781"/>
			<point x="291" y="200" type="curve" smooth="yes"/>
			<point x="242" y="269"/>
			<point x="296" y="312"/>
			<point x="343" y="312" type="curve" smooth="yes"/>
			<point x="413" y="312"/>
			<point x="446" y="289"/>
		</contour>
		<contour>
			<point x="299" y="510" type="curve" smooth="yes"/>
			<point x="224" y="476"/>
			<point x="181" y="391.8"/>
			<point x="181" y="313" type="curve" smooth="yes"/>
			<point x="181" y="237"/>
			<point x="229" y="166"/>
			<point x="360" y="166" type="curve" smooth="yes"/>
			<point x="464" y="166"/>
			<point x="529" y="239"/>
			<point x="529" y="315" type="curve" smooth="yes"/>
			<point x="529" y="410"/>
			<point x="465" y="524"/>
			<point x="384" y="524" type="curve" smooth="yes"/>
			<point x="339" y="524"/>
			<point x="316" y="500"/>
			<point x="293" y="455" type="curve" smooth="yes"/>
			<point x="277" y="424"/>
			<point x="262" y="414"/>
			<point x="239" y="414" type="curve" smooth="yes"/>
			<point x="185" y="414"/>
			<point x="158" y="438"/>
			<point x="158" y="497" type="curve" smooth="yes"/>
			<point x="158" y="587"/>
			<point x="278" y="709"/>
			<point x="399" y="709" type="curve" smooth="yes"/>
			<point x="564" y="709"/>
			<point x="704" y="546"/>
			<point x="704" y="327" type="curve" smooth="yes"/>
			<point x="704" y="156"/>
			<point x="575" y="-9"/>
			<point x="360" y="-9" type="curve" smooth="yes"/>
			<point x="103" y="-9"/>
			<point x="10" y="144"/>
			<point x="10" y="313" type="curve" smooth="yes"/>
			<point x="10" y="496"/>
			<point x="163" y="656"/>
			<point x="253" y="656" type="curve" smooth="yes"/>
			<point x="292" y="656"/>
			<point x="350" y="617"/>
			<point x="350" y="574" type="curve" smooth="yes"/>
			<point x="350" y="547"/>
			<point x="345" y="531"/>
		</contour>
	</outline>
</glyph>
<glyph name="R" format="2">
	<unicode hex="0052"/>
	<advance width="717"/>
	<outline>
		<contour>
			<point x="78" y="675" type="curve" smooth="yes"/>
			<point x="22" y="675"/>
			<point x="2.0473231058" y="634.4137588709"/>
			<point x="15" y="588" type="curve" smooth="yes"/>
			<point x="43" y="489"/>
			<point x="69" y="422"/>
			<point x="66" y="313" type="curve"/>
			<point x="31" y="240"/>
			<point x="15" y="175.3475177305"/>
			<point x="15" y="126" type="curve" smooth="yes"/>
			<point x="15" y="30.8381720631"/>
			<point x="90.4380019761" y="-13"/>
			<point x="143" y="-13" type="curve" smooth="yes"/>
			<point x="184" y="-13"/>
			<point x="200" y="3"/>
			<point x="200" y="44" type="curve" smooth="yes"/>
			<point x="200" y="469"/>
			<point x="446" y="535"/>
			<point x="475" y="535" type="curve" smooth="yes"/>
			<point x="488" y="535"/>
			<point x="493" y="531"/>
			<point x="493" y="520" type="curve" smooth="yes"/>
			<point x="493" y="478"/>
			<point x="412" y="371"/>
			<point x="177" y="323" type="curve" smooth="yes"/>
			<point x="138" y="315"/>
			<point x="123" y="237"/>
			<point x="146" y="206" type="curve" smooth="yes"/>
			<point x="225" y="104"/>
			<point x="494" y="-12"/>
			<point x="569" y="-12" type="curve" smooth="yes"/>
			<point x="647" y="-12"/>
			<point x="701" y="31"/>
			<point x="701" y="83" type="curve" smooth="yes"/>
			<point x="701" y="114"/>
			<point x="671" y="133"/>
			<point x="607" y="148" type="curve" smooth="yes"/>
			<point x="537.3225983166" y="164.9216546945"/>
			<point x="451" y="193"/>
			<point x="370" y="233" type="curve"/>
			<point x="545" y="286"/>
			<point x="667" y="399.5"/>
			<point x="667" y="529" type="curve" smooth="yes"/>
			<point x="667" y="630.3206521739"/>
			<point x="615" y="710"/>
			<point x="487" y="710" type="curve" smooth="yes"/>
			<point x="369.5951557093" y="710"/>
			<point x="261" y="636"/>
			<point x="197" y="524" type="curve"/>
			<point x="220" y="524" type="line"/>
			<point x="195.1074252374" y="637.0537770469"/>
			<point x="159" y="675"/>
		</contour>
	</outline>
</glyph>
<glyph name="S" format="2">
	<unicode hex="0053"/>
	<advance width="551"/>
	<outline>
		<contour>
			<point x="242" y="-9" type="curve" smooth="yes"/>
			<point x="439" y="-9"/>
			<point x="536" y="46"/>
			<point x="536" y="168" type="curve" smooth="yes"/>
			<point x="536" y="362"/>
			<point x="206" y="385"/>
			<point x="206" y="451" type="curve" smooth="yes"/>
			<point x="206" y="481"/>
			<point x="311" y="515"/>
			<point x="460" y="546" type="curve" smooth="yes"/>
			<point x="492" y="552"/>
			<point x="514" y="581"/>
			<point x="514" y="615" type="curve" smooth="yes"/>
			<point x="514" y="664"/>
			<point x="490" y="710"/>
			<point x="418" y="710" type="curve" smooth="yes"/>
			<point x="295" y="710"/>
			<point x="27" y="612"/>
			<point x="27" y="455" type="curve" smooth="yes"/>
			<point x="27" y="257.4946236559"/>
			<point x="322" y="236"/>
			<point x="355" y="172" type="curve"/>
			<point x="310" y="161"/>
			<point x="284" y="158"/>
			<point x="221" y="158" type="curve" smooth="yes"/>
			<point x="146" y="158"/>
			<point x="128" y="185"/>
			<point x="92" y="185" type="curve" smooth="yes"/>
			<point x="50.4" y="185"/>
			<point x="40" y="164"/>
			<point x="40" y="129" type="curve" smooth="yes"/>
			<point x="40" y="59"/>
			<point x="111" y="-9"/>
		</contour>
	</outline>
</glyph>
<glyph name="T" format="2">
	<unicode hex="0054"/>
	<advance width="647"/>
	<outline>
		<contour>
			<point x="232" y="568" type="curve" smooth="yes"/>
			<point x="207.9695477461" y="285.642186017"/>
			<point x="204.853651811" y="194.6457860442"/>
			<point x="234" y="85" type="curve" smooth="yes"/>
			<point x="257" y="9"/>
			<point x="302" y="-13"/>
			<point x="355" y="-13" type="curve" smooth="yes"/>
			<point x="396" y="-13"/>
			<point x="417" y="4"/>
			<point x="417" y="53" type="curve" smooth="yes"/>
			<point x="417" y="92"/>
			<point x="387" y="167"/>
			<point x="409" y="514" type="curve" smooth="yes"/>
			<point x="414" y="602"/>
			<point x="387" y="640"/>
			<point x="304" y="640" type="curve" smooth="yes"/>
			<point x="263.3043478261" y="640"/>
			<point x="235.0016999585" y="610.0237994186"/>
		</contour>
		<contour>
			<point x="138" y="543" type="curve" smooth="yes"/>
			<point x="249.1951988322" y="532.2391743066"/>
			<point x="352.5498721228" y="532"/>
			<point x="489" y="532" type="curve" smooth="yes"/>
			<point x="557.1886792453" y="532"/>
			<point x="628" y="566"/>
			<point x="628" y="649" type="curve" smooth="yes"/>
			<point x="628" y="686"/>
			<point x="608" y="711"/>
			<point x="566" y="711" type="curve" smooth="yes"/>
			<point x="483.4259259259" y="711"/>
			<point x="434.4259259259" y="700"/>
			<point x="370" y="700" type="curve" smooth="yes"/>
			<point x="277.7272727273" y="700"/>
			<point x="193.3636363636" y="710"/>
			<point x="80" y="710" type="curve" smooth="yes"/>
			<point x="42" y="710"/>
			<point x="27" y="683"/>
			<point x="27" y="651" type="curve" smooth="yes"/>
			<point x="27" y="585"/>
			<point x="54" y="551"/>
		</contour>
	</outline>
</glyph>
<glyph name="U" format="2">
	<unicode hex="0055"/>
	<advance width="666"/>
	<outline>
		<contour>
			<point x="355" y="-13" type="curve" smooth="yes"/>
			<point x="547" y="-13"/>
			<point x="633" y="114"/>
			<point x="633" y="298" type="curve" smooth="yes"/>
			<point x="633" y="382"/>
			<point x="624" y="448"/>
			<point x="624" y="520" type="curve" smooth="yes"/>
			<point x="624" y="560"/>
			<point x="633" y="625"/>
			<point x="633" y="638" type="curve" smooth="yes"/>
			<point x="633" y="679"/>
			<point x="592" y="712"/>
			<point x="552" y="712" type="curve" smooth="yes"/>
			<point x="490" y="712"/>
			<point x="446" y="675"/>
			<point x="446" y="615" type="curve" smooth="yes"/>
			<point x="446" y="498"/>
			<point x="454" y="429"/>
			<point x="454" y="305" type="curve" smooth="yes"/>
			<point x="454" y="198"/>
			<point x="418" y="165"/>
			<point x="348" y="165" type="curve" smooth="yes"/>
			<point x="269" y="165"/>
			<point x="234" y="194"/>
			<point x="234" y="332" type="curve" smooth="yes"/>
			<point x="234" y="395.1864162847"/>
			<point x="243" y="482.7266291111"/>
			<point x="243" y="544" type="curve" smooth="yes"/>
			<point x="243" y="680.3492875615"/>
			<point x="190.8923348749" y="716"/>
			<point x="123" y="716" type="curve" smooth="yes"/>
			<point x="90" y="716"/>
			<point x="36" y="706"/>
			<point x="36" y="670" type="curve" smooth="yes"/>
			<point x="36" y="613"/>
			<point x="55" y="600"/>
			<point x="55" y="489" type="curve" smooth="yes"/>
			<point x="55" y="452"/>
			<point x="50" y="397"/>
			<point x="50" y="342" type="curve" smooth="yes"/>
			<point x="50" y="129"/>
			<point x="138" y="-13"/>
		</contour>
	</outline>
</glyph>
<glyph name="W" format="2">
	<unicode hex="0057"/>
	<advance width="938"/>
	<outline>
		<contour>
			<point x="193" y="619" type="curve" smooth="yes"/>
			<point x="190.0014627825" y="668.9756202902"/>
			<point x="143" y="712"/>
			<point x="56" y="712" type="curve" smooth="yes"/>
			<point x="11" y="712"/>
			<point x="-6" y="676"/>
			<point x="-3" y="631" type="curve" smooth="yes"/>
			<point x="9" y="450"/>
			<point x="59" y="255"/>
			<point x="126" y="84" type="curve" smooth="yes"/>
			<point x="158" y="3"/>
			<point x="198.7475702653" y="-8"/>
			<point x="226" y="-8" type="curve" smooth="yes"/>
			<point x="269.3333333333" y="-8"/>
			<point x="290" y="13"/>
			<point x="304" y="59" type="curve" smooth="yes"/>
			<point x="355" y="222"/>
			<point x="411" y="352"/>
			<point x="487" y="441" type="curve" smooth="yes"/>
			<point x="509" y="466"/>
			<point x="406" y="491"/>
			<point x="429" y="460" type="curve" smooth="yes"/>
			<point x="493" y="375"/>
			<point x="526" y="166"/>
			<point x="611" y="59" type="curve" smooth="yes"/>
			<point x="650" y="10"/>
			<point x="682" y="-12"/>
			<point x="735" y="-12" type="curve" smooth="yes"/>
			<point x="760" y="-12"/>
			<point x="786" y="-1"/>
			<point x="804" y="42" type="curve" smooth="yes"/>
			<point x="864.9184936387" y="192.7474588347"/>
			<point x="881" y="415"/>
			<point x="923" y="559" type="curve" smooth="yes"/>
			<point x="941.12077745" y="622.4227210751"/>
			<point x="925" y="712"/>
			<point x="822" y="712" type="curve" smooth="yes"/>
			<point x="794.1692307692" y="712"/>
			<point x="771" y="703"/>
			<point x="755" y="671" type="curve" smooth="yes"/>
			<point x="728" y="621"/>
			<point x="706.0260583555" y="367.1008248722"/>
			<point x="664" y="242" type="curve" smooth="yes"/>
			<point x="640.1698146672" y="169.1076683938"/>
			<point x="796.5617501015" y="143.1671248638"/>
			<point x="749" y="207" type="curve" smooth="yes"/>
			<point x="661.0879588808" y="336.3418536007"/>
			<point x="626.399732443" y="537.4109206104"/>
			<point x="588" y="594" type="curve" smooth="yes"/>
			<point x="561" y="635"/>
			<point x="535" y="652"/>
			<point x="480" y="652" type="curve" smooth="yes"/>
			<point x="438" y="652"/>
			<point x="405" y="631"/>
			<point x="371" y="590" type="curve" smooth="yes"/>
			<point x="305" y="509"/>
			<point x="244" y="407"/>
			<point x="182" y="228" type="curve" smooth="yes"/>
			<point x="167" y="186"/>
			<point x="283" y="179"/>
			<point x="238" y="317" type="curve" smooth="yes"/>
			<point x="210.3977365722" y="411.7566016646"/>
			<point x="202.004361035" y="486.9360381549"/>
		</contour>
	</outline>
</glyph>
<glyph name="X" format="2">
	<unicode hex="0058"/>
	<advance width="571"/>
	<outline>
		<contour>
			<point x="156" y="636" type="curve" smooth="yes"/>
			<point x="249" y="380"/>
			<point x="428" y="318"/>
			<point x="525" y="193" type="curve" smooth="yes"/>
			<point x="610" y="85"/>
			<point x="551" y="-12"/>
			<point x="465" y="-12" type="curve" smooth="yes"/>
			<point x="424" y="-12"/>
			<point x="385" y="11"/>
			<point x="355" y="61" type="curve" smooth="yes"/>
			<point x="285" y="177"/>
			<point x="-0.5894910206" y="397.9639063463"/>
			<point x="-51" y="553" type="curve" smooth="yes"/>
			<point x="-88.7875524961" y="664.0725027915"/>
			<point x="-59" y="713"/>
			<point x="45" y="713" type="curve" smooth="yes"/>
			<point x="103" y="713"/>
			<point x="144" y="670"/>
		</contour>
		<contour>
			<point x="526" y="538" type="curve" smooth="yes"/>
			<point x="399" y="402"/>
			<point x="203" y="205"/>
			<point x="116" y="52" type="curve" smooth="yes"/>
			<point x="92.6088050138" y="11.0654087742"/>
			<point x="74" y="-5"/>
			<point x="33" y="-5" type="curve" smooth="yes"/>
			<point x="-30" y="-5"/>
			<point x="-50" y="73"/>
			<point x="15" y="186" type="curve" smooth="yes"/>
			<point x="150" y="423"/>
			<point x="301" y="587"/>
			<point x="386" y="663" type="curve" smooth="yes"/>
			<point x="420.4342094778" y="694.5646920213"/>
			<point x="442" y="707"/>
			<point x="476" y="707" type="curve" smooth="yes"/>
			<point x="540" y="707"/>
			<point x="592.7834100841" y="608.0678400883"/>
		</contour>
	</outline>
</glyph>
<glyph name="Y" format="2">
	<unicode hex="0059"/>
	<advance width="606"/>
	<outline>
		<contour>
			<point x="568" y="534" type="curve" smooth="yes"/>
			<point x="442" y="438"/>
			<point x="332" y="211"/>
			<point x="292" y="30" type="curve" smooth="yes"/>
			<point x="285" y="0"/>
			<point x="263" y="-14"/>
			<point x="222" y="-14" type="curve" smooth="yes"/>
			<point x="162" y="-14"/>
			<point x="132" y="44"/>
			<point x="149" y="129" type="curve" smooth="yes"/>
			<point x="180" y="292"/>
			<point x="312" y="555"/>
			<point x="479" y="686" type="curve" smooth="yes"/>
			<point x="507" y="708"/>
			<point x="522" y="713"/>
			<point x="537" y="713" type="curve" smooth="yes"/>
			<point x="578" y="713"/>
			<point x="607" y="672"/>
			<point x="607" y="621" type="curve" smooth="yes"/>
			<point x="607" y="587"/>
			<point x="599" y="560"/>
		</contour>
		<contour>
			<point x="163" y="658" type="curve" smooth="yes"/>
			<point x="234" y="532"/>
			<point x="270" y="526"/>
			<point x="348" y="373" type="curve" smooth="yes"/>
			<point x="372.1946003234" y="324.6107993533"/>
			<point x="346.7619047619" y="242"/>
			<point x="296" y="242" type="curve" smooth="yes"/>
			<point x="269.5588235294" y="242"/>
			<point x="250.3778589482" y="252.9576397881"/>
			<point x="238" y="274" type="curve" smooth="yes"/>
			<point x="145.6837665043" y="426.5732653099"/>
			<point x="109" y="433"/>
			<point x="43" y="524" type="curve" smooth="yes"/>
			<point x="23" y="552"/>
			<point x="11" y="581"/>
			<point x="11" y="624" type="curve" smooth="yes"/>
			<point x="11" y="675"/>
			<point x="40" y="710"/>
			<point x="77" y="710" type="curve" smooth="yes"/>
			<point x="112" y="710"/>
			<point x="138" y="702"/>
		</contour>
	</outline>
</glyph>
<glyph name="Z" format="2">
	<unicode hex="005A"/>
	<advance width="646"/>
	<outline>
		<contour>
			<point x="41" y="677" type="curve" smooth="yes"/>
			<point x="139" y="700"/>
			<point x="236" y="710"/>
			<point x="330" y="710" type="curve" smooth="yes"/>
			<point x="540" y="710"/>
			<point x="594" y="632"/>
			<point x="594" y="549" type="curve" smooth="yes"/>
			<point x="594" y="440"/>
			<point x="566" y="403"/>
			<point x="367" y="289" type="curve" smooth="yes"/>
			<point x="199" y="192"/>
			<point x="192" y="184"/>
			<point x="171" y="136" type="curve" smooth="yes"/>
			<point x="157" y="104"/>
			<point x="103" y="184"/>
			<point x="131" y="171" type="curve" smooth="yes"/>
			<point x="155" y="160"/>
			<point x="175" y="155"/>
			<point x="215" y="155" type="curve" smooth="yes"/>
			<point x="278" y="155"/>
			<point x="357.7888446215" y="174"/>
			<point x="439" y="174" type="curve" smooth="yes"/>
			<point x="532" y="174"/>
			<point x="618" y="146"/>
			<point x="618" y="53" type="curve" smooth="yes"/>
			<point x="618" y="16"/>
			<point x="593" y="-7"/>
			<point x="560" y="-7" type="curve" smooth="yes"/>
			<point x="517" y="-7"/>
			<point x="490" y="0"/>
			<point x="423" y="0" type="curve" smooth="yes"/>
			<point x="340" y="0"/>
			<point x="262" y="-11"/>
			<point x="195" y="-11" type="curve" smooth="yes"/>
			<point x="53" y="-11"/>
			<point x="3" y="60"/>
			<point x="3" y="133" type="curve" smooth="yes"/>
			<point x="3" y="223"/>
			<point x="28" y="283"/>
			<point x="257" y="417" type="curve" smooth="yes"/>
			<point x="403" y="504"/>
			<point x="412" y="516"/>
			<point x="423" y="544" type="curve" smooth="yes"/>
			<point x="435" y="576"/>
			<point x="472" y="500"/>
			<point x="448" y="519" type="curve" smooth="yes"/>
			<point x="432" y="531"/>
			<point x="428" y="537"/>
			<point x="377" y="537" type="curve" smooth="yes"/>
			<point x="261" y="537"/>
			<point x="179" y="511"/>
			<point x="129" y="511" type="curve" smooth="yes"/>
			<point x="70" y="511"/>
			<point x="-5" y="542"/>
			<point x="-5" y="613" type="curve" smooth="yes"/>
			<point x="-5" y="642"/>
			<point x="9" y="669"/>
		</contour>
	</outline>
</glyph>
<glyph name="a" format="2">
	<unicode hex="0061"/>
	<advance width="644"/>
	<outline>
		<contour>
			<point x="332" y="392" type="curve" smooth="yes"/>
			<point x="337.024105698" y="426.1639187462"/>
			<point x="369" y="446"/>
			<point x="402" y="446" type="curve" smooth="yes"/>
			<point x="459" y="446"/>
			<point x="503.2120268288" y="413.4761690113"/>
			<point x="520" y="372" type="curve" smooth="yes"/>
			<point x="559.6961979932" y="284.6724246698"/>
			<point x="576" y="223"/>
			<point x="647" y="147" type="curve" smooth="yes"/>
			<point x="686" y="105"/>
			<point x="648" y="-7"/>
			<point x="572" y="-7" type="curve" smooth="yes"/>
			<point x="547" y="-7"/>
			<point x="531.2573344913" y="3.8776956012"/>
			<point x="521" y="16" type="curve" smooth="yes"/>
			<point x="463.2462437282" y="86.6502326165"/>
			<point x="432" y="141"/>
			<point x="393" y="249" type="curve"/>
			<point x="453" y="255" type="line"/>
			<point x="393" y="52"/>
			<point x="285.2197195507" y="-10"/>
			<point x="177" y="-10" type="curve" smooth="yes"/>
			<point x="69" y="-10"/>
			<point x="-5" y="50.8837209302"/>
			<point x="-5" y="143" type="curve" smooth="yes"/>
			<point x="-5" y="318.4210772943"/>
			<point x="156.2052980132" y="526"/>
			<point x="307" y="526" type="curve" smooth="yes"/>
			<point x="363" y="526"/>
			<point x="407" y="488"/>
			<point x="407" y="420" type="curve" smooth="yes"/>
			<point x="407" y="397"/>
			<point x="392" y="385"/>
			<point x="375" y="381" type="curve" smooth="yes"/>
			<point x="250.9638382096" y="358.0904413741"/>
			<point x="162" y="242"/>
			<point x="162" y="127" type="curve" smooth="yes"/>
			<point x="162" y="108"/>
			<point x="164" y="95"/>
			<point x="171" y="73" type="curve"/>
			<point x="97" y="187" type="line"/>
			<point x="129.5716553623" y="164.1998412464"/>
			<point x="152" y="158"/>
			<point x="184" y="158" type="curve" smooth="yes"/>
			<point x="246" y="158"/>
			<point x="309.4300084612" y="238.1136940537"/>
		</contour>
	</outline>
</glyph>
<glyph name="b" format="2">
	<unicode hex="0062"/>
	<advance width="575"/>
	<outline>
		<contour>
			<point x="192" y="693" type="curve" smooth="yes"/>
			<point x="192" y="646.8603003926"/>
			<point x="175" y="565"/>
			<point x="175" y="480" type="curve" smooth="yes"/>
			<point x="175" y="428"/>
			<point x="171.8480683433" y="396.0635215968"/>
			<point x="179" y="346" type="curve" smooth="yes"/>
			<point x="182.6221625294" y="318.4715647763"/>
			<point x="122" y="351"/>
			<point x="138" y="387" type="curve" smooth="yes"/>
			<point x="166" y="449"/>
			<point x="253.4703196347" y="527"/>
			<point x="356" y="527" type="curve" smooth="yes"/>
			<point x="471" y="527"/>
			<point x="567" y="460.9797979798"/>
			<point x="567" y="305" type="curve" smooth="yes"/>
			<point x="567" y="120.7049180328"/>
			<point x="379.8318042813" y="-10"/>
			<point x="190" y="-10" type="curve" smooth="yes"/>
			<point x="105" y="-10"/>
			<point x="4" y="20"/>
			<point x="4" y="105" type="curve" smooth="yes"/>
			<point x="4" y="149.6666666667"/>
			<point x="38" y="171"/>
			<point x="88" y="171" type="curve" smooth="yes"/>
			<point x="113" y="171"/>
			<point x="146" y="163"/>
			<point x="178" y="163" type="curve" smooth="yes"/>
			<point x="256.6995230525" y="163"/>
			<point x="390" y="206"/>
			<point x="390" y="314" type="curve" smooth="yes"/>
			<point x="390" y="339"/>
			<point x="381" y="353"/>
			<point x="353" y="353" type="curve" smooth="yes"/>
			<point x="260.1578947368" y="353"/>
			<point x="196.948613045" y="272.7537708406"/>
			<point x="173" y="158" type="curve" smooth="yes"/>
			<point x="167" y="129"/>
			<point x="150" y="110"/>
			<point x="121" y="110" type="curve" smooth="yes"/>
			<point x="83" y="110"/>
			<point x="46.0851456005" y="139.3827602255"/>
			<point x="37" y="190" type="curve" smooth="yes"/>
			<point x="18.6632808872" y="292.2995908396"/>
			<point x="8" y="402.2407407407"/>
			<point x="8" y="464" type="curve" smooth="yes"/>
			<point x="8" y="614.374251497"/>
			<point x="31" y="674"/>
			<point x="24" y="751" type="curve" smooth="yes"/>
			<point x="21" y="785"/>
			<point x="34" y="811"/>
			<point x="70" y="811" type="curve" smooth="yes"/>
			<point x="131" y="811"/>
			<point x="192" y="768.6417910448"/>
		</contour>
	</outline>
</glyph>
<glyph name="c" format="2">
	<unicode hex="0063"/>
	<advance width="482"/>
	<outline>
		<contour>
			<point x="464" y="148" type="curve" smooth="yes"/>
			<point x="464" y="206"/>
			<point x="447" y="228"/>
			<point x="411" y="228" type="curve" smooth="yes"/>
			<point x="357" y="228"/>
			<point x="366" y="166"/>
			<point x="257" y="166" type="curve" smooth="yes"/>
			<point x="179" y="166"/>
			<point x="168" y="189"/>
			<point x="168" y="216" type="curve" smooth="yes"/>
			<point x="168" y="284"/>
			<point x="237" y="353"/>
			<point x="331" y="353" type="curve" smooth="yes"/>
			<point x="361" y="353"/>
			<point x="362" y="324"/>
			<point x="383" y="324" type="curve" smooth="yes"/>
			<point x="429" y="324"/>
			<point x="453" y="368"/>
			<point x="453" y="424" type="curve" smooth="yes"/>
			<point x="453" y="506"/>
			<point x="397" y="525"/>
			<point x="341" y="525" type="curve" smooth="yes"/>
			<point x="155" y="525"/>
			<point x="-4" y="390"/>
			<point x="-4" y="220" type="curve" smooth="yes"/>
			<point x="-4" y="86"/>
			<point x="89" y="-9"/>
			<point x="266" y="-9" type="curve" smooth="yes"/>
			<point x="381" y="-9"/>
			<point x="464" y="49"/>
		</contour>
	</outline>
</glyph>
<glyph name="d" format="2">
	<unicode hex="0064"/>
	<advance width="613"/>
	<outline>
		<contour>
			<point x="253" y="-9" type="curve" smooth="yes"/>
			<point x="328.7798165138" y="-9"/>
			<point x="441" y="42"/>
			<point x="489" y="192" type="curve"/>
			<point x="392" y="163" type="line"/>
			<point x="392" y="67"/>
			<point x="452.5275229358" y="-20"/>
			<point x="537" y="-20" type="curve" smooth="yes"/>
			<point x="594" y="-20"/>
			<point x="632" y="28"/>
			<point x="632" y="71" type="curve" smooth="yes"/>
			<point x="632" y="109.8"/>
			<point x="557" y="93.3"/>
			<point x="557" y="294" type="curve" smooth="yes"/>
			<point x="557" y="418.504587156"/>
			<point x="588" y="496.1422018349"/>
			<point x="598" y="643" type="curve" smooth="yes"/>
			<point x="604" y="752"/>
			<point x="559.05" y="810"/>
			<point x="472" y="810" type="curve" smooth="yes"/>
			<point x="441.3181818182" y="810"/>
			<point x="418" y="794.3424657534"/>
			<point x="418" y="741" type="curve" smooth="yes"/>
			<point x="418" y="371.4051620724"/>
			<point x="345" y="166"/>
			<point x="248" y="166" type="curve" smooth="yes"/>
			<point x="217" y="166"/>
			<point x="174" y="228.7777777778"/>
			<point x="174" y="279" type="curve" smooth="yes"/>
			<point x="174" y="326"/>
			<point x="219" y="352"/>
			<point x="287" y="352" type="curve" smooth="yes"/>
			<point x="348" y="352"/>
			<point x="359" y="333"/>
			<point x="386" y="333" type="curve" smooth="yes"/>
			<point x="405.8947368421" y="333"/>
			<point x="422" y="356"/>
			<point x="422" y="389" type="curve" smooth="yes"/>
			<point x="422" y="480"/>
			<point x="352.7692307692" y="527"/>
			<point x="242" y="527" type="curve" smooth="yes"/>
			<point x="91" y="529"/>
			<point x="-10" y="428.6551724138"/>
			<point x="-10" y="279" type="curve" smooth="yes"/>
			<point x="-10" y="124"/>
			<point x="98" y="-9"/>
		</contour>
	</outline>
</glyph>
<glyph name="e" format="2">
	<unicode hex="0065"/>
	<advance width="537"/>
	<outline>
		<contour>
			<point x="227" y="186" type="curve" smooth="yes"/>
			<point x="367" y="186"/>
			<point x="486" y="234.0520231214"/>
			<point x="486" y="349" type="curve" smooth="yes"/>
			<point x="486" y="464"/>
			<point x="402.6878612717" y="525"/>
			<point x="283" y="525" type="curve" smooth="yes"/>
			<point x="101.1290322581" y="525"/>
			<point x="-15" y="357"/>
			<point x="-15" y="210" type="curve" smooth="yes"/>
			<point x="-15" y="82"/>
			<point x="65" y="-10"/>
			<point x="249" y="-10" type="curve" smooth="yes"/>
			<point x="423" y="-10"/>
			<point x="533" y="69"/>
			<point x="533" y="145" type="curve" smooth="yes"/>
			<point x="533" y="181"/>
			<point x="519" y="199"/>
			<point x="490" y="199" type="curve" smooth="yes"/>
			<point x="435.1496062992" y="199"/>
			<point x="392" y="146"/>
			<point x="232" y="146" type="curve" smooth="yes"/>
			<point x="173" y="146"/>
			<point x="154" y="157.8444444444"/>
			<point x="154" y="187" type="curve" smooth="yes"/>
			<point x="154" y="271"/>
			<point x="218" y="355"/>
			<point x="307" y="355" type="curve" smooth="yes"/>
			<point x="321" y="355"/>
			<point x="327" y="349"/>
			<point x="327" y="338" type="curve" smooth="yes"/>
			<point x="327" y="307"/>
			<point x="256" y="281"/>
			<point x="208" y="281" type="curve" smooth="yes"/>
			<point x="176.367816092" y="281"/>
			<point x="157.9770114943" y="286"/>
			<point x="144" y="286" type="curve" smooth="yes"/>
			<point x="123" y="286"/>
			<point x="114" y="276"/>
			<point x="114" y="256" type="curve" smooth="yes"/>
			<point x="114" y="219.0555555556"/>
			<point x="157.2058823529" y="186"/>
		</contour>
	</outline>
</glyph>
<glyph name="f" format="2">
	<unicode hex="0066"/>
	<advance width="372"/>
	<outline>
		<contour>
			<point x="326" y="366" type="curve" smooth="yes"/>
			<point x="358" y="369"/>
			<point x="373" y="395"/>
			<point x="373" y="424" type="curve" smooth="yes"/>
			<point x="373" y="484.1869158879"/>
			<point x="318" y="516"/>
			<point x="277" y="516" type="curve" smooth="yes"/>
			<point x="241" y="516"/>
			<point x="196" y="508"/>
			<point x="140" y="488" type="curve" smooth="yes"/>
			<point x="93" y="471"/>
			<point x="66" y="428"/>
			<point x="66" y="377" type="curve" smooth="yes"/>
			<point x="66" y="339.8461538462"/>
			<point x="104" y="314"/>
			<point x="147" y="314" type="curve" smooth="yes"/>
			<point x="177" y="314"/>
			<point x="204" y="355"/>
		</contour>
		<contour>
			<point x="170" y="-169" type="curve" smooth="yes"/>
			<point x="218" y="-169"/>
			<point x="241" y="-145"/>
			<point x="241" y="-55" type="curve" smooth="yes"/>
			<point x="241" y="173"/>
			<point x="201" y="300.5088062622"/>
			<point x="201" y="440" type="curve" smooth="yes"/>
			<point x="201" y="580"/>
			<point x="219" y="612"/>
			<point x="340" y="656" type="curve" smooth="yes"/>
			<point x="370" y="667"/>
			<point x="387" y="688"/>
			<point x="387" y="723" type="curve" smooth="yes"/>
			<point x="387" y="786"/>
			<point x="341" y="810"/>
			<point x="292" y="810" type="curve"/>
			<point x="160.4584980237" y="810"/>
			<point x="32" y="676.0186915888"/>
			<point x="32" y="474" type="curve" smooth="yes"/>
			<point x="32" y="281.9045725646"/>
			<point x="67" y="206.2306163022"/>
			<point x="67" y="-14" type="curve" smooth="yes"/>
			<point x="67" y="-114"/>
			<point x="118" y="-169"/>
		</contour>
	</outline>
</glyph>
<glyph name="g" format="2">
	<unicode hex="0067"/>
	<advance width="600"/>
	<outline>
		<contour>
			<point x="441" y="467" type="curve" smooth="yes"/>
			<point x="512" y="467"/>
			<point x="544" y="425"/>
			<point x="547" y="385" type="curve" smooth="yes"/>
			<point x="560" y="229"/>
			<point x="605" y="162"/>
			<point x="605" y="-23" type="curve" smooth="yes"/>
			<point x="605" y="-170"/>
			<point x="518" y="-260"/>
			<point x="365" y="-260" type="curve" smooth="yes"/>
			<point x="117" y="-260"/>
			<point x="78" y="-175"/>
			<point x="78" y="-115" type="curve" smooth="yes"/>
			<point x="78" y="-61"/>
			<point x="118" y="-19"/>
			<point x="184" y="-19" type="curve" smooth="yes"/>
			<point x="210" y="-19"/>
			<point x="218" y="-30"/>
			<point x="218" y="-51" type="curve" smooth="yes"/>
			<point x="218" y="-71"/>
			<point x="244" y="-88"/>
			<point x="355" y="-88" type="curve" smooth="yes"/>
			<point x="413" y="-88"/>
			<point x="432" y="-63"/>
			<point x="432" y="-16" type="curve" smooth="yes"/>
			<point x="432" y="71"/>
			<point x="407" y="113"/>
			<point x="395" y="212" type="curve"/>
			<point x="459" y="205" type="line"/>
			<point x="420" y="76"/>
			<point x="296" y="41"/>
			<point x="212" y="41" type="curve" smooth="yes"/>
			<point x="78" y="41"/>
			<point x="-5" y="116"/>
			<point x="-5" y="242" type="curve" smooth="yes"/>
			<point x="-5" y="405"/>
			<point x="129" y="530"/>
			<point x="278" y="530" type="curve" smooth="yes"/>
			<point x="389" y="530"/>
			<point x="427" y="460"/>
			<point x="427" y="395" type="curve" smooth="yes"/>
			<point x="427" y="356"/>
			<point x="407" y="332"/>
			<point x="390" y="332" type="curve" smooth="yes"/>
			<point x="355" y="332"/>
			<point x="348" y="366"/>
			<point x="303" y="366" type="curve" smooth="yes"/>
			<point x="243" y="366"/>
			<point x="168" y="307"/>
			<point x="168" y="256" type="curve" smooth="yes"/>
			<point x="168" y="230"/>
			<point x="182" y="216"/>
			<point x="213" y="216" type="curve" smooth="yes"/>
			<point x="318" y="216"/>
			<point x="395" y="281"/>
			<point x="395" y="404" type="curve" smooth="yes"/>
			<point x="395" y="448"/>
			<point x="406" y="467"/>
		</contour>
	</outline>
</glyph>
<glyph name="h" format="2">
	<unicode hex="0068"/>
	<advance width="613"/>
	<outline>
		<contour>
			<point x="553" y="-12" type="curve" smooth="yes"/>
			<point x="598" y="-12"/>
			<point x="632" y="14.25"/>
			<point x="632" y="48" type="curve" smooth="yes"/>
			<point x="632" y="64.1538461538"/>
			<point x="626.8453388505" y="79.309322299"/>
			<point x="620" y="93" type="curve" smooth="yes"/>
			<point x="602.4114018584" y="125.3321437671"/>
			<point x="566.972393252" y="156.6329065765"/>
			<point x="556" y="268" type="curve" smooth="yes"/>
			<point x="540.9256629116" y="433.8177079724"/>
			<point x="509.4935064936" y="532"/>
			<point x="389" y="532" type="curve" smooth="yes"/>
			<point x="305.67003367" y="532"/>
			<point x="225" y="455"/>
			<point x="154" y="297" type="curve"/>
			<point x="190" y="224" type="line"/>
			<point x="190" y="447"/>
			<point x="212" y="545.9791122715"/>
			<point x="212" y="627" type="curve" smooth="yes"/>
			<point x="212" y="770.3349753695"/>
			<point x="148" y="810"/>
			<point x="96" y="810" type="curve" smooth="yes"/>
			<point x="42" y="810"/>
			<point x="23" y="781"/>
			<point x="23" y="751" type="curve" smooth="yes"/>
			<point x="23" y="710"/>
			<point x="38" y="682"/>
			<point x="38" y="605" type="curve" smooth="yes"/>
			<point x="38" y="489"/>
			<point x="15" y="346.0204081633"/>
			<point x="15" y="135" type="curve" smooth="yes"/>
			<point x="15" y="60"/>
			<point x="63" y="-10"/>
			<point x="123" y="-10" type="curve" smooth="yes"/>
			<point x="152" y="-10"/>
			<point x="173" y="1"/>
			<point x="192" y="42" type="curve" smooth="yes"/>
			<point x="267.6873331327" y="209.9889589042"/>
			<point x="339" y="308"/>
			<point x="376" y="321" type="curve"/>
			<point x="383" y="289"/>
			<point x="387.9638538966" y="250.7521771715"/>
			<point x="394" y="149" type="curve" smooth="yes"/>
			<point x="399.9967122211" y="61.048220757"/>
			<point x="455" y="-12"/>
		</contour>
	</outline>
</glyph>
<glyph name="i" format="2">
	<unicode hex="0069"/>
	<advance width="276"/>
	<outline>
		<contour>
			<point x="165" y="-10" type="curve" smooth="yes"/>
			<point x="207" y="-10"/>
			<point x="229" y="17"/>
			<point x="229" y="62" type="curve" smooth="yes"/>
			<point x="229" y="131.3757225434"/>
			<point x="241.9388442608" y="351.1585902623"/>
			<point x="241" y="415" type="curve" smooth="yes"/>
			<point x="240" y="488"/>
			<point x="202" y="526"/>
			<point x="156" y="526" type="curve" smooth="yes"/>
			<point x="101" y="526"/>
			<point x="39" y="460"/>
			<point x="39" y="386" type="curve" smooth="yes"/>
			<point x="39" y="305.4340836013"/>
			<point x="48" y="257.8861209964"/>
			<point x="48" y="98" type="curve" smooth="yes"/>
			<point x="48" y="41"/>
			<point x="100" y="-10"/>
		</contour>
		<contour>
			<point x="168" y="589" type="curve" smooth="yes"/>
			<point x="226.2857142857" y="589"/>
			<point x="248" y="626"/>
			<point x="248" y="663" type="curve" smooth="yes"/>
			<point x="248" y="732"/>
			<point x="198.32" y="817"/>
			<point x="113" y="817" type="curve" smooth="yes"/>
			<point x="66" y="817"/>
			<point x="27" y="777"/>
			<point x="27" y="722" type="curve" smooth="yes"/>
			<point x="27" y="653.4601226994"/>
			<point x="91.4304635762" y="589"/>
		</contour>
	</outline>
</glyph>
<glyph name="j" format="2">
	<unicode hex="006A"/>
	<advance width="285"/>
	<outline>
		<contour>
			<point x="197" y="466" type="curve" smooth="yes"/>
			<point x="233" y="277"/>
			<point x="253" y="111"/>
			<point x="253" y="-40" type="curve" smooth="yes"/>
			<point x="253" y="-185"/>
			<point x="170" y="-260"/>
			<point x="44" y="-260" type="curve" smooth="yes"/>
			<point x="-54" y="-260"/>
			<point x="-110" y="-200"/>
			<point x="-110" y="-127" type="curve" smooth="yes"/>
			<point x="-110" y="-88"/>
			<point x="-90" y="-66"/>
			<point x="-61" y="-66" type="curve" smooth="yes"/>
			<point x="-26" y="-66"/>
			<point x="-8" y="-88"/>
			<point x="35" y="-88" type="curve" smooth="yes"/>
			<point x="66" y="-88"/>
			<point x="83" y="-63"/>
			<point x="83" y="-26" type="curve" smooth="yes"/>
			<point x="83" y="184"/>
			<point x="30" y="266"/>
			<point x="30" y="402" type="curve" smooth="yes"/>
			<point x="30" y="490"/>
			<point x="76" y="524"/>
			<point x="123" y="524" type="curve" smooth="yes"/>
			<point x="163" y="524"/>
			<point x="187" y="513"/>
		</contour>
		<contour>
			<point x="138" y="599" type="curve" smooth="yes"/>
			<point x="196" y="599"/>
			<point x="218" y="649"/>
			<point x="218" y="695" type="curve" smooth="yes"/>
			<point x="218" y="749"/>
			<point x="184" y="817"/>
			<point x="123" y="817" type="curve" smooth="yes"/>
			<point x="64" y="817"/>
			<point x="17" y="769"/>
			<point x="17" y="702" type="curve" smooth="yes"/>
			<point x="17" y="649"/>
			<point x="71" y="599"/>
		</contour>
	</outline>
</glyph>
<glyph name="k" format="2">
	<unicode hex="006B"/>
	<advance width="558"/>
	<outline>
		<contour>
			<point x="515" y="-7" type="curve" smooth="yes"/>
			<point x="562" y="-7"/>
			<point x="587" y="21"/>
			<point x="587" y="65" type="curve" smooth="yes"/>
			<point x="587" y="114"/>
			<point x="561" y="166"/>
			<point x="493" y="180" type="curve" smooth="yes"/>
			<point x="365" y="211"/>
			<point x="323" y="233"/>
			<point x="323" y="249" type="curve" smooth="yes"/>
			<point x="323" y="270"/>
			<point x="393" y="322"/>
			<point x="505" y="355" type="curve" smooth="yes"/>
			<point x="572" y="375"/>
			<point x="589" y="396.3387096774"/>
			<point x="589" y="432" type="curve" smooth="yes"/>
			<point x="589" y="493.0422535212"/>
			<point x="551" y="527"/>
			<point x="493" y="527" type="curve" smooth="yes"/>
			<point x="382" y="527"/>
			<point x="132" y="376"/>
			<point x="132" y="229" type="curve" smooth="yes"/>
			<point x="132" y="138"/>
			<point x="374" y="-7"/>
		</contour>
		<contour>
			<point x="99" y="810" type="curve" smooth="yes"/>
			<point x="54" y="810"/>
			<point x="33" y="786"/>
			<point x="33" y="741" type="curve" smooth="yes"/>
			<point x="33" y="705"/>
			<point x="42" y="674.1818181818"/>
			<point x="42" y="594" type="curve" smooth="yes"/>
			<point x="42" y="404.7162471396"/>
			<point x="15" y="223.2264150943"/>
			<point x="15" y="137" type="curve" smooth="yes"/>
			<point x="15" y="18.937007874"/>
			<point x="69.5" y="-10"/>
			<point x="124" y="-10" type="curve" smooth="yes"/>
			<point x="165.8888888889" y="-10"/>
			<point x="189" y="9"/>
			<point x="189" y="53" type="curve" smooth="yes"/>
			<point x="189" y="101.5510204082"/>
			<point x="184" y="145.3265306122"/>
			<point x="184" y="209" type="curve" smooth="yes"/>
			<point x="184" y="324.9884726225"/>
			<point x="221" y="452"/>
			<point x="221" y="596" type="curve" smooth="yes"/>
			<point x="221" y="752"/>
			<point x="180.6694214876" y="810"/>
		</contour>
	</outline>
</glyph>
<glyph name="l" format="2">
	<unicode hex="006C"/>
	<advance width="327"/>
	<outline>
		<contour>
			<point x="215" y="675" type="curve" smooth="yes"/>
			<point x="215" y="592"/>
			<point x="193" y="496.0066225166"/>
			<point x="193" y="347" type="curve" smooth="yes"/>
			<point x="193" y="170"/>
			<point x="213" y="164"/>
			<point x="237" y="164" type="curve" smooth="yes"/>
			<point x="271" y="164"/>
			<point x="290" y="186"/>
			<point x="312" y="186" type="curve" smooth="yes"/>
			<point x="346" y="186"/>
			<point x="357" y="156.3090909091"/>
			<point x="357" y="115" type="curve" smooth="yes"/>
			<point x="357" y="36.7053571428"/>
			<point x="289.8417266188" y="-11"/>
			<point x="195" y="-11" type="curve" smooth="yes"/>
			<point x="130.1896551724" y="-11"/>
			<point x="16" y="26"/>
			<point x="16" y="367" type="curve" smooth="yes"/>
			<point x="16" y="513"/>
			<point x="26" y="631"/>
			<point x="47" y="746" type="curve" smooth="yes"/>
			<point x="55.0666814349" y="791.3750830712"/>
			<point x="77.8333333333" y="810"/>
			<point x="121" y="810" type="curve" smooth="yes"/>
			<point x="180.7291666667" y="810"/>
			<point x="215" y="770"/>
		</contour>
	</outline>
</glyph>
<glyph name="m" format="2">
	<unicode hex="006D"/>
	<advance width="867"/>
	<outline>
		<contour>
			<point x="171" y="401" type="curve" smooth="yes"/>
			<point x="171" y="291"/>
			<point x="107" y="317"/>
			<point x="135" y="398" type="curve" smooth="yes"/>
			<point x="159" y="466"/>
			<point x="219" y="526"/>
			<point x="305" y="526" type="curve" smooth="yes"/>
			<point x="376" y="526"/>
			<point x="407.9583000588" y="477.266238086"/>
			<point x="421" y="394" type="curve" smooth="yes"/>
			<point x="429" y="340"/>
			<point x="442" y="297"/>
			<point x="455" y="272" type="curve" smooth="yes"/>
			<point x="493" y="200"/>
			<point x="385" y="171"/>
			<point x="411" y="280" type="curve" smooth="yes"/>
			<point x="449" y="443"/>
			<point x="542" y="526"/>
			<point x="634" y="526" type="curve" smooth="yes"/>
			<point x="760" y="526"/>
			<point x="814" y="440"/>
			<point x="829" y="270" type="curve" smooth="yes"/>
			<point x="844" y="102"/>
			<point x="885" y="102"/>
			<point x="885" y="52" type="curve" smooth="yes"/>
			<point x="885" y="25"/>
			<point x="863" y="-9"/>
			<point x="824" y="-9" type="curve" smooth="yes"/>
			<point x="735.4295302013" y="-9"/>
			<point x="682.0201178281" y="24.8473411865"/>
			<point x="665" y="154" type="curve" smooth="yes"/>
			<point x="647" y="292"/>
			<point x="638" y="321"/>
			<point x="617" y="366" type="curve" smooth="yes"/>
			<point x="594.2685561045" y="414.8726043753"/>
			<point x="699.9058623681" y="398.9661230549"/>
			<point x="643" y="349" type="curve" smooth="yes"/>
			<point x="575" y="290"/>
			<point x="544" y="183"/>
			<point x="508" y="50" type="curve" smooth="yes"/>
			<point x="499" y="11"/>
			<point x="470" y="-9"/>
			<point x="431" y="-9" type="curve" smooth="yes"/>
			<point x="345" y="-9"/>
			<point x="310.9716697083" y="58.2431683373"/>
			<point x="299" y="161" type="curve" smooth="yes"/>
			<point x="285" y="277"/>
			<point x="275.2419395855" y="327.3440805527"/>
			<point x="244" y="369" type="curve" smooth="yes"/>
			<point x="224" y="396"/>
			<point x="291" y="381"/>
			<point x="273" y="344" type="curve" smooth="yes"/>
			<point x="223" y="247"/>
			<point x="206" y="152"/>
			<point x="194" y="42" type="curve" smooth="yes"/>
			<point x="190" y="9"/>
			<point x="168" y="-9"/>
			<point x="122" y="-9" type="curve" smooth="yes"/>
			<point x="29" y="-9"/>
			<point x="2" y="90"/>
			<point x="2" y="190" type="curve" smooth="yes"/>
			<point x="2" y="253"/>
			<point x="12" y="322"/>
			<point x="12" y="384" type="curve" smooth="yes"/>
			<point x="12" y="412"/>
			<point x="7" y="437"/>
			<point x="7" y="461" type="curve" smooth="yes"/>
			<point x="7" y="484"/>
			<point x="23" y="505"/>
			<point x="55" y="505" type="curve" smooth="yes"/>
			<point x="137" y="505"/>
			<point x="171" y="438"/>
		</contour>
	</outline>
</glyph>
<glyph name="n" format="2">
	<unicode hex="006E"/>
	<advance width="612"/>
	<outline>
		<contour>
			<point x="545" y="-10" type="curve" smooth="yes"/>
			<point x="584" y="-10"/>
			<point x="627" y="29"/>
			<point x="627" y="83" type="curve" smooth="yes"/>
			<point x="627" y="108"/>
			<point x="620.1727607166" y="125.0341970569"/>
			<point x="602" y="140" type="curve" smooth="yes"/>
			<point x="561" y="174"/>
			<point x="554" y="239"/>
			<point x="554" y="370" type="curve" smooth="yes"/>
			<point x="554" y="456"/>
			<point x="493" y="524"/>
			<point x="399" y="524" type="curve" smooth="yes"/>
			<point x="301" y="524"/>
			<point x="194" y="441"/>
			<point x="127" y="252" type="curve"/>
			<point x="177" y="186" type="line"/>
			<point x="177" y="325"/>
			<point x="204" y="341"/>
			<point x="204" y="412" type="curve" smooth="yes"/>
			<point x="204" y="477"/>
			<point x="142.0593220339" y="511"/>
			<point x="101" y="511" type="curve" smooth="yes"/>
			<point x="64" y="511"/>
			<point x="44" y="490"/>
			<point x="44" y="461" type="curve" smooth="yes"/>
			<point x="44" y="338"/>
			<point x="15" y="285.5254654022"/>
			<point x="15" y="151" type="curve" smooth="yes"/>
			<point x="15" y="58"/>
			<point x="45.1759036144" y="-9"/>
			<point x="105" y="-9" type="curve" smooth="yes"/>
			<point x="150.6787439614" y="-9"/>
			<point x="176" y="6"/>
			<point x="189" y="50" type="curve" smooth="yes"/>
			<point x="241.9064937744" y="227.3923614789"/>
			<point x="334" y="357"/>
			<point x="385" y="357" type="curve" smooth="yes"/>
			<point x="403" y="357"/>
			<point x="416" y="346"/>
			<point x="443" y="317" type="curve"/>
			<point x="447.9176434528" y="373.5528997068"/>
			<point x="417" y="376"/>
			<point x="364" y="379" type="curve"/>
			<point x="397" y="364"/>
			<point x="398" y="341"/>
			<point x="398" y="299" type="curve" smooth="yes"/>
			<point x="398" y="95"/>
			<point x="452.7448275862" y="-10"/>
		</contour>
	</outline>
</glyph>
<glyph name="o" format="2">
	<unicode hex="006F"/>
	<advance width="600"/>
	<outline>
		<contour>
			<point x="315" y="-12" type="curve" smooth="yes"/>
			<point x="474" y="-12"/>
			<point x="595" y="108.3422818792"/>
			<point x="595" y="266" type="curve" smooth="yes"/>
			<point x="595" y="419.5087719298"/>
			<point x="491" y="516"/>
			<point x="311" y="516" type="curve" smooth="yes"/>
			<point x="226" y="516"/>
			<point x="131" y="427.9704142012"/>
			<point x="131" y="345" type="curve" smooth="yes"/>
			<point x="131" y="284.6164383562"/>
			<point x="156" y="269"/>
			<point x="181" y="269" type="curve" smooth="yes"/>
			<point x="213" y="269"/>
			<point x="230" y="279"/>
			<point x="258" y="307" type="curve" smooth="yes"/>
			<point x="282.7487373415" y="331.7487373415"/>
			<point x="297" y="347"/>
			<point x="323" y="347" type="curve" smooth="yes"/>
			<point x="383" y="347"/>
			<point x="425" y="312.3050847458"/>
			<point x="425" y="258" type="curve" smooth="yes"/>
			<point x="425" y="195.9649122807"/>
			<point x="377" y="154"/>
			<point x="310" y="154" type="curve" smooth="yes"/>
			<point x="228" y="154"/>
			<point x="176" y="196"/>
			<point x="176" y="259" type="curve" smooth="yes"/>
			<point x="176" y="297.6956521739"/>
			<point x="217.8731592446" y="335.6441555509"/>
			<point x="257" y="348" type="curve" smooth="yes"/>
			<point x="325" y="369"/>
			<point x="342" y="412"/>
			<point x="342" y="466" type="curve" smooth="yes"/>
			<point x="342" y="510.5846153846"/>
			<point x="304" y="529"/>
			<point x="265" y="529" type="curve" smooth="yes"/>
			<point x="139" y="529"/>
			<point x="5" y="395.0188679245"/>
			<point x="5" y="266" type="curve" smooth="yes"/>
			<point x="5" y="104"/>
			<point x="135" y="-12"/>
		</contour>
	</outline>
</glyph>
<glyph name="p" format="2">
	<unicode hex="0070"/>
	<advance width="550"/>
	<outline>
		<contour>
			<point x="181" y="358" type="curve" smooth="yes"/>
			<point x="181" y="207"/>
			<point x="227" y="92.111627907"/>
			<point x="227" y="-46" type="curve" smooth="yes"/>
			<point x="227" y="-144"/>
			<point x="220" y="-261"/>
			<point x="127" y="-261" type="curve" smooth="yes"/>
			<point x="84" y="-261"/>
			<point x="33" y="-226"/>
			<point x="33" y="-151" type="curve" smooth="yes"/>
			<point x="33" y="-87.748603352"/>
			<point x="45" y="-64"/>
			<point x="45" y="2" type="curve" smooth="yes"/>
			<point x="45" y="153"/>
			<point x="5.6901642053" y="265.9588489104"/>
			<point x="-5" y="406" type="curve" smooth="yes"/>
			<point x="-7" y="435"/>
			<point x="16" y="456"/>
			<point x="50" y="456" type="curve" smooth="yes"/>
			<point x="115.2715897436" y="456"/>
			<point x="181" y="411"/>
		</contour>
		<contour>
			<point x="203" y="528" type="curve" smooth="yes"/>
			<point x="392" y="528"/>
			<point x="554" y="411"/>
			<point x="554" y="200" type="curve" smooth="yes"/>
			<point x="554" y="103"/>
			<point x="464.2583333333" y="-10"/>
			<point x="312" y="-10" type="curve" smooth="yes"/>
			<point x="189" y="-10"/>
			<point x="96" y="68.7853403141"/>
			<point x="96" y="161" type="curve" smooth="yes"/>
			<point x="96" y="186"/>
			<point x="120" y="212"/>
			<point x="144" y="212" type="curve" smooth="yes"/>
			<point x="189" y="212"/>
			<point x="220" y="159"/>
			<point x="283" y="159" type="curve" smooth="yes"/>
			<point x="336" y="159"/>
			<point x="372" y="178.4285714286"/>
			<point x="372" y="227" type="curve" smooth="yes"/>
			<point x="372" y="310"/>
			<point x="267.7391304348" y="353"/>
			<point x="196" y="353" type="curve" smooth="yes"/>
			<point x="182.6281182406" y="353"/>
			<point x="174.6375175512" y="348"/>
			<point x="148" y="348" type="curve" smooth="yes"/>
			<point x="103" y="348"/>
			<point x="54" y="388"/>
			<point x="54" y="437" type="curve" smooth="yes"/>
			<point x="54" y="509"/>
			<point x="105" y="528"/>
		</contour>
	</outline>
</glyph>
<glyph name="q" format="2">
	<unicode hex="0071"/>
	<advance width="558"/>
	<outline>
		<contour>
			<point x="393" y="305" type="curve" smooth="yes"/>
			<point x="436" y="305"/>
			<point x="470" y="337.6666666667"/>
			<point x="470" y="375" type="curve" smooth="yes"/>
			<point x="470" y="453"/>
			<point x="407" y="525"/>
			<point x="309" y="525" type="curve" smooth="yes"/>
			<point x="149" y="525"/>
			<point x="-15" y="360.3583061889"/>
			<point x="-15" y="208" type="curve" smooth="yes"/>
			<point x="-15" y="76.9797979798"/>
			<point x="58" y="-10"/>
			<point x="205" y="-10" type="curve" smooth="yes"/>
			<point x="289" y="-10"/>
			<point x="343" y="13"/>
			<point x="407" y="57" type="curve" smooth="yes"/>
			<point x="480" y="107"/>
			<point x="378" y="118"/>
			<point x="376" y="71" type="curve" smooth="yes"/>
			<point x="372" y="-16"/>
			<point x="375" y="-99"/>
			<point x="381" y="-168" type="curve" smooth="yes"/>
			<point x="384" y="-202"/>
			<point x="421" y="-260"/>
			<point x="475" y="-260" type="curve" smooth="yes"/>
			<point x="519.7213114754" y="-260"/>
			<point x="567.2988120526" y="-233.8362343218"/>
			<point x="610" y="-196" type="curve" smooth="yes"/>
			<point x="622" y="-185"/>
			<point x="630" y="-169"/>
			<point x="630" y="-151" type="curve" smooth="yes"/>
			<point x="630" y="-79.6649369904"/>
			<point x="607.5" y="-21"/>
			<point x="579" y="-21" type="curve" smooth="yes"/>
			<point x="561" y="-21"/>
			<point x="547.7162274253" y="-35.162155757"/>
			<point x="527" y="-47" type="curve" smooth="yes"/>
			<point x="499.0900879442" y="-62.6295507512"/>
			<point x="551" y="-105"/>
			<point x="548" y="-59" type="curve" smooth="yes"/>
			<point x="542" y="42"/>
			<point x="541" y="94"/>
			<point x="542" y="151" type="curve"/>
			<point x="547" y="171"/>
			<point x="572" y="218.0916827853"/>
			<point x="572" y="284" type="curve" smooth="yes"/>
			<point x="572" y="331.5555555556"/>
			<point x="530.7058823529" y="368"/>
			<point x="464" y="368" type="curve" smooth="yes"/>
			<point x="442" y="368"/>
			<point x="430" y="356"/>
			<point x="424" y="337" type="curve" smooth="yes"/>
			<point x="387.0679491758" y="232.3591893313"/>
			<point x="306" y="160"/>
			<point x="205" y="160" type="curve" smooth="yes"/>
			<point x="177.5531914894" y="160"/>
			<point x="162" y="174"/>
			<point x="162" y="199" type="curve" smooth="yes"/>
			<point x="162" y="259"/>
			<point x="255.4569536424" y="354"/>
			<point x="309" y="354" type="curve" smooth="yes"/>
			<point x="332" y="354"/>
			<point x="343" y="348"/>
			<point x="352" y="333" type="curve" smooth="yes"/>
			<point x="364" y="312"/>
			<point x="378" y="305"/>
		</contour>
	</outline>
</glyph>
<glyph name="r" format="2">
	<unicode hex="0072"/>
	<advance width="468"/>
	<outline>
		<contour>
			<point x="153" y="-12" type="curve" smooth="yes"/>
			<point x="198.5892857143" y="-12"/>
			<point x="210" y="12"/>
			<point x="225" y="96" type="curve" smooth="yes"/>
			<point x="243" y="202"/>
			<point x="283" y="265"/>
			<point x="448" y="332" type="curve" smooth="yes"/>
			<point x="494.4138993634" y="351.4290741521"/>
			<point x="502" y="380"/>
			<point x="502" y="410" type="curve" smooth="yes"/>
			<point x="502" y="477"/>
			<point x="484.7096774194" y="521"/>
			<point x="435" y="521" type="curve" smooth="yes"/>
			<point x="330" y="521"/>
			<point x="203" y="418"/>
			<point x="144" y="265" type="curve"/>
			<point x="215" y="303" type="line"/>
			<point x="188" y="461"/>
			<point x="147" y="511"/>
			<point x="48" y="511" type="curve" smooth="yes"/>
			<point x="16" y="511"/>
			<point x="-9" y="494"/>
			<point x="-9" y="468" type="curve" smooth="yes"/>
			<point x="-9" y="449"/>
			<point x="-6" y="437"/>
			<point x="10" y="403" type="curve" smooth="yes"/>
			<point x="41" y="336"/>
			<point x="51" y="254"/>
			<point x="51" y="115" type="curve" smooth="yes"/>
			<point x="51" y="45"/>
			<point x="100.5428571429" y="-12"/>
		</contour>
	</outline>
</glyph>
<glyph name="s" format="2">
	<unicode hex="0073"/>
	<advance width="477"/>
	<outline>
		<contour>
			<point x="171" y="-10" type="curve" smooth="yes"/>
			<point x="330" y="-10"/>
			<point x="482" y="47"/>
			<point x="482" y="176" type="curve" smooth="yes"/>
			<point x="482" y="322"/>
			<point x="201" y="306"/>
			<point x="181" y="335" type="curve"/>
			<point x="202" y="341"/>
			<point x="238" y="348"/>
			<point x="304" y="348" type="curve" smooth="yes"/>
			<point x="337" y="348"/>
			<point x="360" y="342"/>
			<point x="384" y="342" type="curve" smooth="yes"/>
			<point x="405" y="342"/>
			<point x="422" y="370"/>
			<point x="422" y="410" type="curve" smooth="yes"/>
			<point x="422" y="465"/>
			<point x="380" y="524"/>
			<point x="313" y="525" type="curve" smooth="yes"/>
			<point x="168" y="528"/>
			<point x="12" y="480"/>
			<point x="12" y="344" type="curve" smooth="yes"/>
			<point x="12" y="196"/>
			<point x="265" y="215"/>
			<point x="310" y="181" type="curve"/>
			<point x="291" y="170"/>
			<point x="243" y="160"/>
			<point x="183" y="160" type="curve" smooth="yes"/>
			<point x="120" y="160"/>
			<point x="81.2068965517" y="189"/>
			<point x="39" y="189" type="curve" smooth="yes"/>
			<point x="8" y="189"/>
			<point x="-8" y="166"/>
			<point x="-8" y="140" type="curve" smooth="yes"/>
			<point x="-8" y="69"/>
			<point x="56" y="-10"/>
		</contour>
	</outline>
</glyph>
<glyph name="t" format="2">
	<unicode hex="0074"/>
	<advance width="443"/>
	<outline>
		<contour>
			<point x="194" y="348" type="curve" smooth="yes"/>
			<point x="194" y="440"/>
			<point x="204" y="503"/>
			<point x="204" y="558" type="curve" smooth="yes"/>
			<point x="204" y="668"/>
			<point x="149" y="716"/>
			<point x="66" y="716" type="curve" smooth="yes"/>
			<point x="21" y="716"/>
			<point x="11" y="694"/>
			<point x="11" y="666" type="curve" smooth="yes"/>
			<point x="11" y="634"/>
			<point x="28" y="606"/>
			<point x="28" y="553" type="curve" smooth="yes"/>
			<point x="28" y="479"/>
			<point x="21" y="428"/>
			<point x="21" y="342" type="curve" smooth="yes"/>
			<point x="21" y="129"/>
			<point x="89" y="-13"/>
			<point x="287" y="-13" type="curve" smooth="yes"/>
			<point x="384" y="-13"/>
			<point x="435" y="45"/>
			<point x="435" y="129" type="curve" smooth="yes"/>
			<point x="435" y="167.6666666667"/>
			<point x="423" y="187"/>
			<point x="396" y="187" type="curve" smooth="yes"/>
			<point x="371" y="187"/>
			<point x="353.5" y="167"/>
			<point x="321" y="167" type="curve" smooth="yes"/>
			<point x="236" y="167"/>
			<point x="194" y="214.9405405405"/>
		</contour>
		<contour>
			<point x="170" y="327" type="curve" smooth="yes"/>
			<point x="247.5387617052" y="357.8286642924"/>
			<point x="307.5476012061" y="367.5342250754"/>
			<point x="411" y="374" type="curve" smooth="yes"/>
			<point x="437" y="376"/>
			<point x="452" y="398"/>
			<point x="452" y="422" type="curve" smooth="yes"/>
			<point x="452" y="477"/>
			<point x="397" y="525"/>
			<point x="327" y="525" type="curve" smooth="yes"/>
			<point x="270.1165048544" y="525"/>
			<point x="196.7913612006" y="512.1214745314"/>
			<point x="141" y="492" type="curve" smooth="yes"/>
			<point x="79" y="469"/>
			<point x="73" y="433"/>
			<point x="73" y="391" type="curve" smooth="yes"/>
			<point x="73" y="338"/>
			<point x="109" y="302"/>
		</contour>
		<component base="t.001"/>
	</outline>
</glyph>
<glyph name="u" format="2">
	<unicode hex="0075"/>
	<advance width="639"/>
	<outline>
		<contour>
			<point x="333" y="-10" type="curve" smooth="yes"/>
			<point x="474" y="-10"/>
			<point x="585" y="120"/>
			<point x="585" y="389" type="curve" smooth="yes"/>
			<point x="585" y="479"/>
			<point x="547" y="523"/>
			<point x="482" y="523" type="curve" smooth="yes"/>
			<point x="428" y="523"/>
			<point x="413" y="494"/>
			<point x="413" y="445" type="curve" smooth="yes"/>
			<point x="413" y="413"/>
			<point x="417" y="388"/>
			<point x="417" y="348" type="curve" smooth="yes"/>
			<point x="417" y="259"/>
			<point x="384" y="165"/>
			<point x="321" y="165" type="curve" smooth="yes"/>
			<point x="271" y="165"/>
			<point x="208" y="248"/>
			<point x="208" y="323" type="curve" smooth="yes"/>
			<point x="208" y="356"/>
			<point x="230" y="392"/>
			<point x="230" y="417" type="curve" smooth="yes"/>
			<point x="230" y="476"/>
			<point x="177" y="528"/>
			<point x="121" y="528" type="curve" smooth="yes"/>
			<point x="95" y="528"/>
			<point x="75" y="511"/>
			<point x="67" y="489" type="curve" smooth="yes"/>
			<point x="45" y="434"/>
			<point x="35" y="383"/>
			<point x="35" y="323" type="curve" smooth="yes"/>
			<point x="35" y="184"/>
			<point x="152" y="-10"/>
		</contour>
	</outline>
</glyph>
<glyph name="v" format="2">
	<unicode hex="0076"/>
	<advance width="581"/>
	<outline>
		<contour>
			<point x="169" y="67" type="curve" smooth="yes"/>
			<point x="204" y="13"/>
			<point x="238" y="-10"/>
			<point x="289" y="-10" type="curve" smooth="yes"/>
			<point x="320" y="-10"/>
			<point x="335" y="3"/>
			<point x="350" y="39" type="curve" smooth="yes"/>
			<point x="414" y="189"/>
			<point x="489.1589742395" y="240.5286223528"/>
			<point x="571" y="369" type="curve" smooth="yes"/>
			<point x="578" y="380"/>
			<point x="583" y="396"/>
			<point x="583" y="412" type="curve" smooth="yes"/>
			<point x="583" y="467"/>
			<point x="535" y="526"/>
			<point x="498" y="526" type="curve" smooth="yes"/>
			<point x="470.7272727273" y="526"/>
			<point x="457" y="522"/>
			<point x="438" y="498" type="curve" smooth="yes"/>
			<point x="363" y="403"/>
			<point x="293.8928312051" y="324.3961030194"/>
			<point x="241" y="200" type="curve"/>
			<point x="290" y="190" type="line"/>
			<point x="263" y="256"/>
			<point x="235.4727605375" y="327.1704708964"/>
			<point x="212" y="392" type="curve" smooth="yes"/>
			<point x="186" y="463"/>
			<point x="135" y="524"/>
			<point x="46" y="524" type="curve" smooth="yes"/>
			<point x="11" y="524"/>
			<point x="-7" y="502"/>
			<point x="-7" y="474" type="curve" smooth="yes"/>
			<point x="-7" y="411"/>
			<point x="33" y="374"/>
			<point x="81" y="252" type="curve" smooth="yes"/>
			<point x="103" y="197"/>
			<point x="142" y="108"/>
		</contour>
	</outline>
</glyph>
<glyph name="w" format="2">
	<unicode hex="0077"/>
	<advance width="857"/>
	<outline>
		<contour>
			<point x="142" y="469" type="curve" smooth="yes"/>
			<point x="188.4513712578" y="375.1089304363"/>
			<point x="183" y="233"/>
			<point x="250" y="163" type="curve" smooth="yes"/>
			<point x="273" y="139"/>
			<point x="171.4530236423" y="140.6644346753"/>
			<point x="186" y="162" type="curve" smooth="yes"/>
			<point x="228" y="228"/>
			<point x="230.0475532232" y="259.8435379996"/>
			<point x="271" y="368" type="curve" smooth="yes"/>
			<point x="308" y="466"/>
			<point x="342" y="526"/>
			<point x="412" y="526" type="curve" smooth="yes"/>
			<point x="485.7894736842" y="526"/>
			<point x="527" y="471"/>
			<point x="562" y="381" type="curve" smooth="yes"/>
			<point x="609" y="259"/>
			<point x="601.3604732766" y="198.815482937"/>
			<point x="661" y="172" type="curve" smooth="yes"/>
			<point x="719.1982713707" y="147.0783774407"/>
			<point x="576" y="126"/>
			<point x="605" y="160" type="curve" smooth="yes"/>
			<point x="651.9927213443" y="215.1653685347"/>
			<point x="658" y="367"/>
			<point x="690" y="442" type="curve" smooth="yes"/>
			<point x="706" y="479"/>
			<point x="741.339605645" y="528"/>
			<point x="796" y="528" type="curve" smooth="yes"/>
			<point x="843.524168236" y="528"/>
			<point x="888" y="481"/>
			<point x="888" y="432" type="curve" smooth="yes"/>
			<point x="888" y="411"/>
			<point x="877" y="391"/>
			<point x="862" y="373" type="curve" smooth="yes"/>
			<point x="815" y="315"/>
			<point x="808" y="238"/>
			<point x="786" y="157" type="curve" smooth="yes"/>
			<point x="750" y="19"/>
			<point x="696" y="-13"/>
			<point x="652" y="-13" type="curve" smooth="yes"/>
			<point x="601.7520408163" y="-13"/>
			<point x="562" y="11"/>
			<point x="519" y="82" type="curve" smooth="yes"/>
			<point x="454" y="189"/>
			<point x="442.0244747826" y="310.8447412026"/>
			<point x="407" y="352" type="curve" smooth="yes"/>
			<point x="384.082658558" y="377.1477732914"/>
			<point x="458" y="382"/>
			<point x="433" y="351" type="curve" smooth="yes"/>
			<point x="386" y="286"/>
			<point x="379" y="183"/>
			<point x="327" y="72" type="curve" smooth="yes"/>
			<point x="302" y="16"/>
			<point x="263" y="-15"/>
			<point x="223" y="-15" type="curve" smooth="yes"/>
			<point x="142.20821662" y="-15"/>
			<point x="92.2888081927" y="44.9663706789"/>
			<point x="54" y="182" type="curve" smooth="yes"/>
			<point x="22.403521298" y="297.5246252541"/>
			<point x="5.1299581296" y="358.7400837407"/>
			<point x="-18" y="405" type="curve" smooth="yes"/>
			<point x="-60" y="480"/>
			<point x="-14" y="529"/>
			<point x="50" y="529" type="curve" smooth="yes"/>
			<point x="94" y="529"/>
			<point x="118" y="517"/>
		</contour>
	</outline>
</glyph>
<glyph name="x" format="2">
	<unicode hex="0078"/>
	<advance width="529"/>
	<outline>
		<contour>
			<point x="479" y="365" type="curve" smooth="yes"/>
			<point x="333.9948571296" y="278.3997063413"/>
			<point x="195.0810927133" y="134.8523463643"/>
			<point x="151" y="-63" type="curve" smooth="yes"/>
			<point x="139" y="-115"/>
			<point x="110" y="-157"/>
			<point x="73" y="-157" type="curve" smooth="yes"/>
			<point x="44" y="-157"/>
			<point x="5" y="-142"/>
			<point x="5" y="-50" type="curve" smooth="yes"/>
			<point x="5" y="115"/>
			<point x="168" y="376"/>
			<point x="346" y="490" type="curve" smooth="yes"/>
			<point x="382.3369848858" y="513.1235358364"/>
			<point x="419" y="525"/>
			<point x="436" y="525" type="curve" smooth="yes"/>
			<point x="490" y="525"/>
			<point x="513" y="488.8938053097"/>
			<point x="513" y="423" type="curve" smooth="yes"/>
			<point x="513" y="397"/>
			<point x="505" y="381"/>
		</contour>
		<contour>
			<point x="490" y="146" type="curve" smooth="yes"/>
			<point x="531" y="88"/>
			<point x="537" y="61"/>
			<point x="537" y="42" type="curve" smooth="yes"/>
			<point x="537" y="5"/>
			<point x="507" y="-16"/>
			<point x="451" y="-16" type="curve" smooth="yes"/>
			<point x="429" y="-16"/>
			<point x="395" y="-8"/>
			<point x="358" y="43" type="curve" smooth="yes"/>
			<point x="289" y="139"/>
			<point x="134" y="276"/>
			<point x="57" y="353" type="curve" smooth="yes"/>
			<point x="26.6361066875" y="382.3168625086"/>
			<point x="10" y="404"/>
			<point x="10" y="445" type="curve" smooth="yes"/>
			<point x="10" y="478"/>
			<point x="31" y="525"/>
			<point x="72" y="525" type="curve" smooth="yes"/>
			<point x="84" y="525"/>
			<point x="109" y="528"/>
			<point x="149" y="497" type="curve" smooth="yes"/>
			<point x="220" y="444"/>
			<point x="425" y="235"/>
		</contour>
	</outline>
</glyph>
<glyph name="y" format="2">
	<unicode hex="0079"/>
	<advance width="563"/>
	<outline>
		<contour>
			<point x="205" y="435" type="curve" smooth="yes"/>
			<point x="205" y="479"/>
			<point x="176" y="523"/>
			<point x="86" y="523" type="curve" smooth="yes"/>
			<point x="42" y="523"/>
			<point x="8" y="493.8982035928"/>
			<point x="8" y="343" type="curve" smooth="yes"/>
			<point x="8" y="158.4137931034"/>
			<point x="94" y="78"/>
			<point x="236" y="78" type="curve" smooth="yes"/>
			<point x="291.1413043478" y="78"/>
			<point x="368" y="100"/>
			<point x="424" y="205" type="curve" smooth="yes"/>
			<point x="438" y="232"/>
			<point x="373" y="255"/>
			<point x="373" y="241" type="curve" smooth="yes"/>
			<point x="373" y="149"/>
			<point x="378" y="98.7265625"/>
			<point x="378" y="-5" type="curve" smooth="yes"/>
			<point x="378" y="-52.0238282273"/>
			<point x="360" y="-84"/>
			<point x="293" y="-84" type="curve" smooth="yes"/>
			<point x="164" y="-84"/>
			<point x="142" y="-44"/>
			<point x="91" y="-44" type="curve" smooth="yes"/>
			<point x="58" y="-44"/>
			<point x="44" y="-61"/>
			<point x="44" y="-110" type="curve" smooth="yes"/>
			<point x="44" y="-195.6737588652"/>
			<point x="110" y="-261"/>
			<point x="299" y="-261" type="curve" smooth="yes"/>
			<point x="409" y="-261"/>
			<point x="545" y="-185"/>
			<point x="545" y="-5" type="curve" smooth="yes"/>
			<point x="545" y="186.4955752212"/>
			<point x="504.6930893712" y="231.9850544104"/>
			<point x="522" y="400" type="curve" smooth="yes"/>
			<point x="531.6157837204" y="496.8450646153"/>
			<point x="449" y="522"/>
			<point x="404" y="522" type="curve" smooth="yes"/>
			<point x="370" y="522"/>
			<point x="359.0003979756" y="515.0036812748"/>
			<point x="355" y="478" type="curve" smooth="yes"/>
			<point x="343.0586274722" y="351.1724576037"/>
			<point x="296" y="253"/>
			<point x="226" y="253" type="curve" smooth="yes"/>
			<point x="155.4494382022" y="253"/>
			<point x="205" y="371"/>
		</contour>
	</outline>
</glyph>
<glyph name="z" format="2">
	<unicode hex="007A"/>
	<advance width="633"/>
	<outline>
		<contour>
			<point x="92" y="502" type="curve" smooth="yes"/>
			<point x="169" y="513"/>
			<point x="249" y="524"/>
			<point x="325" y="524" type="curve" smooth="yes"/>
			<point x="477" y="524"/>
			<point x="523" y="449"/>
			<point x="523" y="374" type="curve" smooth="yes"/>
			<point x="523" y="317"/>
			<point x="449" y="211"/>
			<point x="205" y="154" type="curve" smooth="yes"/>
			<point x="96" y="128"/>
			<point x="139" y="200"/>
			<point x="203" y="171" type="curve" smooth="yes"/>
			<point x="225" y="161"/>
			<point x="241" y="156"/>
			<point x="253" y="156" type="curve" smooth="yes"/>
			<point x="328" y="156"/>
			<point x="389" y="172"/>
			<point x="483" y="172" type="curve" smooth="yes"/>
			<point x="547" y="172"/>
			<point x="584" y="121"/>
			<point x="584" y="60" type="curve" smooth="yes"/>
			<point x="584" y="24"/>
			<point x="565" y="0"/>
			<point x="520" y="0" type="curve" smooth="yes"/>
			<point x="440" y="0"/>
			<point x="318" y="-10"/>
			<point x="223" y="-10" type="curve" smooth="yes"/>
			<point x="80" y="-10"/>
			<point x="44" y="67"/>
			<point x="44" y="150" type="curve" smooth="yes"/>
			<point x="44" y="218"/>
			<point x="73" y="246"/>
			<point x="106" y="255" type="curve" smooth="yes"/>
			<point x="277" y="304"/>
			<point x="334" y="337"/>
			<point x="359" y="387" type="curve" smooth="yes"/>
			<point x="375" y="418"/>
			<point x="425" y="324"/>
			<point x="401" y="336" type="curve" smooth="yes"/>
			<point x="373" y="350"/>
			<point x="360" y="355"/>
			<point x="326" y="355" type="curve" smooth="yes"/>
			<point x="203" y="355"/>
			<point x="150" y="332"/>
			<point x="119" y="332" type="curve" smooth="yes"/>
			<point x="80" y="332"/>
			<point x="40" y="385"/>
			<point x="40" y="440" type="curve" smooth="yes"/>
			<point x="40" y="473"/>
			<point x="51" y="495"/>
		</contour>
	</outline>
</glyph>
<glyph name="quoteleft" format="2">
	<unicode hex="2018"/>
	<advance width="241"/>
	<image fileName="quoteleft.png" xScale="2.7154088417" yScale="2.7154088417" xOffset="-114.4273808669" yOffset="-445.4316255776" color="0,0,0,0.31832"/>
	<outline>
		<contour>
			<point x="169" y="813" type="curve" smooth="yes"/>
			<point x="131" y="813"/>
			<point x="105" y="801"/>
			<point x="79" y="763" type="curve" smooth="yes"/>
			<point x="38" y="704"/>
			<point x="17" y="621"/>
			<point x="17" y="562" type="curve" smooth="yes"/>
			<point x="17" y="485"/>
			<point x="52" y="415"/>
			<point x="103" y="415" type="curve" smooth="yes"/>
			<point x="142" y="415"/>
			<point x="162" y="444"/>
			<point x="172" y="493" type="curve" smooth="yes"/>
			<point x="183" y="548"/>
			<point x="201" y="598"/>
			<point x="243" y="650" type="curve" smooth="yes"/>
			<point x="257" y="668"/>
			<point x="262" y="684"/>
			<point x="262" y="703" type="curve" smooth="yes"/>
			<point x="262" y="752"/>
			<point x="227" y="813"/>
		</contour>
	</outline>
</glyph>
<glyph name="R.001" format="2">
	<advance width="915"/>
	<outline>
		<contour>
			<point x="789" y="-14" type="curve" smooth="yes"/>
			<point x="840" y="-14"/>
			<point x="879" y="14"/>
			<point x="879" y="55" type="curve" smooth="yes"/>
			<point x="879" y="75"/>
			<point x="870" y="90"/>
			<point x="804" y="106" type="curve" smooth="yes"/>
			<point x="678" y="136"/>
			<point x="513" y="194"/>
			<point x="390" y="257" type="curve"/>
			<point x="390" y="210" type="line"/>
			<point x="630" y="287"/>
			<point x="779" y="448"/>
			<point x="779" y="578" type="curve" smooth="yes"/>
			<point x="779" y="676"/>
			<point x="703" y="740"/>
			<point x="620" y="740" type="curve" smooth="yes"/>
			<point x="462" y="740"/>
			<point x="308" y="622"/>
			<point x="205" y="455" type="curve"/>
			<point x="232" y="466" type="line"/>
			<point x="219" y="521"/>
			<point x="197" y="560"/>
			<point x="156" y="560" type="curve" smooth="yes"/>
			<point x="118" y="560"/>
			<point x="88" y="540"/>
			<point x="88" y="500" type="curve" smooth="yes"/>
			<point x="88" y="457"/>
			<point x="118" y="423"/>
			<point x="129" y="318" type="curve"/>
			<point x="96" y="238"/>
			<point x="84" y="185"/>
			<point x="84" y="133" type="curve" smooth="yes"/>
			<point x="84" y="37"/>
			<point x="121" y="-21"/>
			<point x="186" y="-23" type="curve" smooth="yes"/>
			<point x="216" y="-22"/>
			<point x="229" y="-6"/>
			<point x="229" y="26" type="curve" smooth="yes"/>
			<point x="229" y="66"/>
			<point x="232" y="178"/>
			<point x="229" y="256" type="curve"/>
			<point x="340" y="457"/>
			<point x="496" y="613"/>
			<point x="618" y="613" type="curve" smooth="yes"/>
			<point x="648" y="613"/>
			<point x="659" y="602"/>
			<point x="659" y="584" type="curve" smooth="yes"/>
			<point x="659" y="514"/>
			<point x="489" y="368"/>
			<point x="289" y="316" type="curve" smooth="yes"/>
			<point x="247" y="305"/>
			<point x="208" y="293"/>
			<point x="205" y="256" type="curve" smooth="yes"/>
			<point x="203" y="219"/>
			<point x="226" y="191"/>
			<point x="306" y="151" type="curve" smooth="yes"/>
			<point x="530" y="38"/>
			<point x="718" y="-14"/>
		</contour>
	</outline>
</glyph>
